<?xml version="1.0" encoding="UTF-8"?>
<svg id="_Слой_2" data-name="Слой 2" xmlns="http://www.w3.org/2000/svg" viewBox="0 0 2729.17 3199.59">
  <defs>
    <style>
      .cls-1 {
        stroke-width: 0px;
      }
    </style>
  </defs>
  <g id="_Слой_1-2" data-name="Слой 1">
    <g>
      <path class="cls-1" d="M1945.59,2637.85c2.15-.67,4.49-.99,6.41-2.06,54.37-30.37,109.01-60.26,162.93-91.41,45.28-26.16,89.71-53.76,132.05-84.6,13.1-9.54,26.78-18.29,40.2-27.41.43.53.85,1.06,1.28,1.59-3.37,2.81-6.59,5.8-10.12,8.39-29.29,21.45-58.56,42.95-88,64.19-27.29,19.69-54.23,39.94-82.33,58.4-44.81,29.44-89.73,58.85-135.95,86-52.53,30.86-106.63,59.07-159.86,88.74-29.38,16.38-58.41,33.38-87.58,50.15-2.57,1.48-4.97,3.25-6.93,6.11,2.91-1.22,5.94-2.22,8.73-3.69,57.15-30.11,114.52-59.82,171.33-90.58,36.31-19.66,71.83-40.77,107.58-61.44,10.37-5.99,20.3-12.74,30.46-19.11,4.09-2.57,8.24-5.05,12.36-7.57.44.63.88,1.25,1.32,1.88-3.62,3.08-7.16,6.26-10.88,9.21-63.23,50.11-128.48,97.39-195.59,142.2-55.16,36.83-111.08,72.39-167.92,106.53-78.62,47.22-160.72,87.74-243.69,126.61-58.25,27.28-117.98,50.93-177.91,74.17-101.99,39.54-206.18,72-312.49,97.57-41.42,9.97-83.19,18.5-124.82,27.63-1.89.42-3.88.36-6.1-.92,13.52-3.99,26.95-8.32,40.57-11.91,98.28-25.91,194.33-58.69,289.69-93.65,71.59-26.24,143.2-52.44,213.01-83.18,37.78-16.63,75.36-33.79,111.06-54.73,12.31-7.22,24.99-13.82,36.82-22.17-9.65,4.06-19.19,8.38-28.97,12.09-6.78,2.57-13.94,4.1-20.82,6.44-14.49,4.92-29.17,9.42-43.31,15.23-57.38,23.59-116.37,42.28-176.04,59.02-9.24,2.59-18.39,5.48-28.19,6.69,3.58-1.42,7.1-3.06,10.76-4.23,37.84-12.16,73.61-29.18,109.28-46.42,83.47-40.34,163.6-86.7,242.43-135.34,17.57-10.84,34.48-22.74,51.67-34.19,2.13-1.42,4.11-3.08,5.52-5.78-2.46,1.33-4.93,2.66-7.39,3.99-30.46,16.49-61.29,32.33-91.29,49.61-63.3,36.45-129.06,68.03-195.34,98.42-57.49,26.36-114.8,53.15-173.78,76.25-56.74,22.22-113.3,44.89-171.04,64.41-27.42,9.27-55.29,17.23-82.97,25.75-1.82.56-3.75.8-6.06-.09,2.53-1,5.02-2.1,7.58-3,79.07-28,158.06-56.22,235.89-87.56,63.99-25.77,126.42-54.99,187.71-86.55,42.03-21.65,83.59-44.29,124.68-67.69,30.65-17.46,60.1-37.01,90.27-55.31,50.92-30.89,95.47-70.24,142.24-106.64,17.35-13.5,34.72-26.99,52.06-40.5,1.23-.96,2.35-2.07,2.77-4.2-3.25,2.01-6.61,3.86-9.74,6.04-39.1,27.22-77.6,55.35-117.39,81.51-48.13,31.65-96.38,63.35-146.35,91.94-65.02,37.19-132.07,70.75-200.51,101.37-3.82,1.71-7.59,3.54-12.17,3.87,9.29-5.48,18.48-11.13,27.87-16.42,39.45-22.22,79.37-43.64,118.32-66.68,44.71-26.44,88.71-54.09,131.1-84.2,34.77-24.69,69.59-49.3,104.44-73.86,9.26-6.52,18.85-12.58,27.98-19.26,2.73-2,6.02-5.23,6.35-8.2,2.06-18.69,3.36-37.47,4.99-57.28-1.98,1.14-2.94,1.43-3.51,2.06-39.74,43.95-84.78,81.77-132.48,116.79-45.24,33.22-92.77,62.45-142.15,89-79.62,42.81-162.13,79.16-246.23,112.05-91.83,35.9-185.17,67.19-280.07,94.08-52.56,14.9-105.17,29.4-158.6,40.7-47.56,10.06-95.35,19-143.05,28.41-1.59.31-3.25.29-5.14.44,100.05-30.55,199.76-61,299.46-91.44-.25-.85-.51-1.7-.76-2.55-45.06,11.32-88.84,27.12-133.55,39.64-44.4,12.44-88.42,26.3-133.68,35.61,19.66-6.09,39.3-12.23,58.98-18.26,59.8-18.34,119.53-36.95,179.48-54.78,21.99-6.54,44.78-10.35,66.76-16.91,34.43-10.29,68.63-21.44,102.66-32.98,41.93-14.23,83.96-28.3,125.31-44.09,105.96-40.46,208.79-87.71,306.61-145.36,56.3-33.18,110.68-69.36,162.53-109.15,21.92-16.82,42.82-35.02,63.73-53.11,16.22-14.03,15.88-14.39,15.75-35.83-.07-11.88-.01-23.77-.01-37.73-130.85,128.46-284.32,219.13-450.31,290.25,20.35-11.94,40.74-23.79,61.03-35.82,76.84-45.58,151.6-94.24,223.23-147.77,56.46-42.19,109.91-87.64,159.73-137.46,9.87-9.87,20.64-18.92,31.54-27.67,21.59-17.33,46.54-27.2,73.92-30.26,21.44-2.39,43.02-3.61,64.94-4.22-22.32,7.77-40.57,21.17-56.9,37.61,25.85-13.17,54.32-19.37,80.53-31.22,26.08-11.79,51.98-24.14,77.1-37.82,37.14-20.23,73.38-42.07,107.25-67.63,10.06-7.59,20.97-14.07,31.11-21.82-25.46,9.91-48.84,24.57-75.56,31.48-26.29,6.8-52.29,14.76-78.41,22.22l-.61-1.9c7.57-3.22,15.35-6.03,22.67-9.73,17.82-9.01,35.36-18.57,53.14-27.68,53.09-27.21,103.87-58.49,155.24-88.7,40.77-23.97,81.03-48.81,121.51-73.26,24.78-14.97,49.55-29.93,74.32-44.9-.35-.67-.71-1.34-1.06-2.01-7.6,3.62-15.42,6.83-22.75,10.93-50.87,28.42-101.65,57.02-152.45,85.59-37.73,21.22-75.45,42.49-113.16,63.74-32.73,18.44-68.34,29.63-103.79,41.18-11.06,3.61-22.41,6.34-33.65,9.39-1.85.5-3.83.55-6.12-.42,2.9-1.02,5.81-1.99,8.7-3.06,23.43-8.62,47.1-16.57,69.29-28.29,9.99-5.28,20.45-9.69,30.8-14.29,6.67-2.96,9.92-7.63,11.34-15.02,3.68-19.11,11.1-36.92,21.43-53.48.66-1.06,1.13-2.25,2.84-5.71-92.74,59.93-190.27,100.44-298.76,110.97,61.73-23.88,119.03-55.97,174.04-92.34l-.81-1.78c-6.79,3.14-13.59,6.26-20.37,9.42-28.07,13.07-55.72,27.13-84.29,38.99-39.38,16.35-79.91,29.57-121.78,38.2-4.61.95-7.62,3.14-10.25,7-32.92,48.25-69.13,94.01-109,136.62-53.79,57.5-110.86,111.6-173.68,159.33-60.31,45.82-123.37,87.47-189.62,124.19-46.6,25.82-93.27,51.53-140.35,76.45-38.87,20.57-79.32,37.79-120.31,53.77-39.7,15.48-78.91,32.26-118.87,47-33.08,12.2-66.94,22.27-100.48,33.24-2.44.8-5.02,1.18-7.96.44,15.02-6.08,29.85-12.71,45.1-18.15,46.48-16.56,91.32-37.01,136.23-57.21,26.39-11.87,51.87-25.75,77.86-38.53,18.52-9.1,37.22-17.86,55.83-26.79,2.86-1.37,5.66-2.86,7.92-5.77-14.66,5.15-29.31,10.34-43.98,15.45-68.22,23.75-135.96,49.07-204.81,70.82-84.41,26.67-169.36,51.88-255.6,72.22-38.23,9.02-76.71,16.97-115.07,25.41-8.75,1.93-17.51,3.86-26.69,4.78,2.26-.86,4.47-1.91,6.79-2.55,40.74-11.24,81.51-22.39,122.25-33.65,71.24-19.68,141.66-41.91,211.73-65.42,45.2-15.16,89.45-32.69,133.25-51.22,44.74-18.92,88.58-40.06,132.35-61.18,41.67-20.11,82.75-41.44,124.08-62.25.57-.29,1.01-.81,1.18-2.52-3.78,1.2-7.68,2.12-11.33,3.66-23.63,9.95-47.35,19.69-70.76,30.15-105.23,46.99-211.36,91.75-320.94,127.7-51.86,17.01-104.23,32.45-156.43,48.41-28.32,8.66-56.74,17-85.17,25.32-8.9,2.6-17.95,4.67-27.5,5.51,2.9-1.17,5.77-2.45,8.71-3.51,69.83-25.12,139.96-49.45,209.41-75.59,47.96-18.05,95.32-37.83,142.35-58.22,61.39-26.63,122.37-54.23,183.18-82.17,42.05-19.32,83.67-39.6,125.2-60.03,28.08-13.81,55.94-28.11,83.37-43.17,21.59-11.84,42.22-25.4,63.52-37.78,40.69-23.65,78.85-51,116.55-79.05,5.29-3.94,10.07-8.56,15.09-12.86,2.57-1.5,5.15-3,7.72-4.5-.46-.65-.91-1.31-1.37-1.96-2.33,1.93-4.65,3.87-6.98,5.8-8.16,5.08-16.41,10.01-24.46,15.26-36,23.47-72.55,45.96-110.1,66.94-41.08,22.95-84.33,41.21-126.76,61.23-40.04,18.89-80.21,37.55-120.71,55.44-94.12,41.58-189.2,80.86-286.57,114.23-106.84,36.62-215.62,66.41-325.82,91.19-60.49,13.6-121.64,23.24-182.91,32.29-14.78,2.18-29.58,4.2-44.46,5.52,65.12-14.83,130.48-28.7,195.3-44.76,65.55-16.25,130.84-33.73,195.74-52.42,64.6-18.6,128.25-40.29,191.23-63.97,62.96-23.68,125.28-48.8,186.9-75.8,61.91-27.12,123.22-55.49,184.02-85.01,60.52-29.39,119.86-60.96,177.81-95.4-9.2,4.02-18.57,7.72-27.58,12.12-43.67,21.36-86.97,43.48-130.9,64.28-95.72,45.3-192.81,87.51-292.03,124.61-113.27,42.36-228.61,78.19-345.72,108.42-81.25,20.97-162.74,40.73-245.59,54.51-35.46,5.9-70.8,12.53-106.19,18.79-1.91.34-3.86.41-5.95-.36,16.65-4.16,33.34-8.14,49.93-12.52,89.77-23.69,179.58-47.16,268.59-73.7,67.35-20.08,133.93-42.44,199.7-67.02,62.68-23.43,125.09-47.68,185.87-75.9,43.18-20.05,86.78-39.21,129.85-59.49,34.63-16.3,69.05-33.11,103-50.77,35.13-18.27,69.65-37.73,104.32-56.89,11.65-6.44,22.95-13.52,34.37-20.38,2.14-1.29,4.08-2.91,5.56-5.5-2.39.9-4.8,1.75-7.16,2.72-62.51,25.66-125.15,51.03-187.5,77.07-78.63,32.85-156.78,66.86-235.62,99.18-47.42,19.44-95.67,36.88-143.72,54.77-38.99,14.52-77.98,29.15-117.42,42.38-78.94,26.48-159.24,48.25-240.44,66.71-.93.21-1.95.03-2.51.03,64.17-20.63,128.65-41.53,193.24-62.09,64.77-20.62,127.46-46.75,190.49-71.94,63.31-25.29,125.57-52.96,185.15-87.73-3.3.38-6.6.76-9.87,1.12,3.4-1.34,6.73-2.76,10.13-3.96,6.53-2.32,13.35-3.98,19.6-6.87,19.34-8.94,38.51-18.27,57.69-27.58,39.53-19.2,79.02-38.49,118.54-57.74,39.82-19.4,79.39-39.32,119.52-58.06,61.85-28.87,123.84-57.48,186.22-85.19,75.63-33.59,148.42-72.37,218.77-115.86,1.97-1.22,3.74-2.74,5.61-4.12-13.97,5.78-27.28,12.47-40.37,19.54-94.4,51.02-191.91,95.7-288.94,141.32-41.89,19.7-84.16,38.58-126.01,58.37-33.71,15.94-66.89,33-100.59,48.96-37.61,17.81-75.53,34.99-113.35,52.37-24.5,11.26-48.92,22.74-73.65,33.48-18.3,7.94-37.09,14.75-55.58,22.25-12.95,5.25-25.81,10.73-38.63,16.28-9.48,4.11-18.83,8.5-28.24,12.77,2.37.91,4.26.56,6.1.01,27.88-8.25,54.09-20.49,80.22-33.02,10.15-4.87,20.92-8.54,31.6-12.19,3.57-1.22,7.75-.68,11.65-.94-23.45,11.02-46.69,22.53-70.42,32.94-22.57,9.9-46.47,16.1-69.94,23.56-55.83,17.75-111.19,36.95-166.77,55.47-14.16,4.72-28.45,9.06-43.37,11.87,3.25-1.4,6.46-2.89,9.75-4.19,38.67-15.32,77.35-30.62,116.02-45.93,20.73-8.21,41.65-15.99,62.14-24.77,33.04-14.15,65.79-28.97,98.67-43.5,12.18-5.38,24.37-10.74,36.57-16.08,28.96-12.69,58.17-24.86,86.84-38.17,31.99-14.86,63.54-30.67,95.2-46.22,35.86-17.61,71.58-35.5,107.46-53.06,37.97-18.59,76.12-36.82,114.09-55.41,52.33-25.61,104.39-51.78,156.9-77.02,53.75-25.85,106.44-53.76,158.04-83.54,60.64-35,118.97-73.62,172.71-118.78,2.67-2.24,4.71-5.23,7.04-7.86,3.05-1.91,6.09-3.82,9.14-5.74-.53-.66-1.06-1.32-1.58-1.98l-7.36,7.92c-3.62,2.2-7.39,4.19-10.83,6.63-62.3,44.22-127.29,84.03-195.1,119.21-66.81,34.66-133.73,69.09-200.41,104-59.64,31.22-120.96,58.84-182.26,86.55-78.88,35.65-157.39,72.14-236.51,107.26-53.85,23.9-108.26,46.56-162.8,68.87-46.2,18.9-92.93,36.51-139.45,54.65-3,1.17-6.15,1.98-10.04,1.27,2.97-1.55,5.86-3.26,8.92-4.62,25.55-11.33,51.2-22.44,76.69-33.91,37.03-16.66,73.96-33.55,110.93-50.35,8.79-3.99,17.63-7.87,26.33-12.05,32.38-15.59,64.76-31.19,97.04-46.98,20.93-10.24,41.91-20.43,62.49-31.35,23.81-12.64,47.29-25.9,70.76-39.17,21.16-11.96,42.11-24.29,63.12-36.5,2.22-1.29,4.24-2.94,5.79-5.6-2.6,1.06-5.27,1.97-7.79,3.2-56.89,27.7-114.73,53.27-173.11,77.67-39.92,16.68-79.45,34.32-119.09,51.68-58.87,25.79-118.85,48.77-179.07,71.18-2.39.89-4.89,1.47-7.82.87,12.44-5.98,24.87-11.96,37.32-17.93,31.8-15.25,63.81-30.08,95.38-45.81,68.24-34.01,136.38-68.22,204.29-102.88,33.21-16.95,65.94-34.84,98.64-52.77,51.1-28.01,101.99-56.4,152.97-84.64,63.85-35.37,125.95-73.6,186.57-114.24,1.92-1.29,3.71-2.76,4.95-5.33-2.26,1.1-4.61,2.07-6.78,3.34-42.53,24.93-84.88,50.18-127.61,74.76-41.57,23.92-83.65,46.95-125.28,70.76-72.31,41.35-145.9,80.34-220.7,116.88-69.38,33.9-139.67,65.96-211.67,94.15-73.52,28.79-148.15,54.32-223.53,77.62-74.11,22.9-148.84,43.81-224.71,60.11-54.99,11.81-110.36,21.9-165.57,32.7-1.55.3-3.21.04-4.93-.74,19.05-4.68,38.07-9.44,57.14-14.02,58.62-14.07,116.39-31.09,173.49-50.36,62.75-21.18,125.8-41.59,187.96-64.39,62.18-22.81,124.04-46.72,184.91-72.79,68.85-29.48,136.35-62.11,202.76-96.88,52.5-27.49,105.45-54.16,157.52-82.46,53.83-29.26,107.25-59.34,160.04-90.44,38.15-22.47,75.02-47.11,112.35-70.97,8.12-5.19,15.74-11.15,23-17.89-2.13,1.05-4.39,1.91-6.38,3.19-64.01,40.92-129.33,79.7-195.83,116.39-38.18,21.06-77.21,40.67-116.46,59.71-59.92,29.07-120.07,57.68-180.65,85.33-45.41,20.73-91.65,39.67-137.53,59.37-2.96,1.27-6.06,2.23-9.55,2.12,7.66-3.63,15.39-7.12,22.96-10.91,44.66-22.34,89.34-44.66,133.92-67.18,35.37-17.87,70.74-35.74,105.83-54.13,31.26-16.38,62.22-33.32,93.15-50.32,25.96-14.27,51.83-28.72,77.45-43.58,18.98-11.01,37.49-22.82,55.5-35.8-1.72.53-3.52.88-5.15,1.63-51.72,23.8-103.6,47.27-155.08,71.59-50.87,24.03-101.11,49.39-152.04,73.3-42.18,19.8-84.88,38.52-127.5,57.36-42.33,18.71-84.64,37.51-127.36,55.3-59.03,24.58-118.93,46.96-179.98,66.04-39.7,12.41-79.69,23.9-119.56,35.78-.92.27-1.95.15-5.01.34,2.34-1.35,3.06-1.85,3.84-2.21,1.21-.54,2.45-1.03,3.7-1.46,86.07-29.3,170.62-62.64,254.73-97.04,45.28-18.52,89.84-38.84,134.57-58.68,30.74-13.64,61.42-27.43,91.75-41.93,38.14-18.23,75.98-37.12,113.81-56.01,20.84-10.4,41.56-21.08,62.04-32.17,45.38-24.57,90.72-49.23,135.81-74.33,51.79-28.83,103.56-57.69,154.83-87.43,46.38-26.9,92.45-54.4,137.94-82.77,38.71-24.14,76.45-49.85,114.56-74.95,34.22-22.53,68.76-44.62,102.47-67.9,46.35-32,91.39-65.8,133.94-102.81,7.52-6.54,15.2-12.91,22.83-19.33.13-.11.54.12,1.52.38-35.53,41.18-70.82,82.19-110.86,118.64-39.91,36.33-81.91,70.19-127.94,101.15,2.5.37,3.53.88,4.14.56,48.07-24.54,95.82-49.69,140.44-80.24,12.33-8.45,24.18-17.78,35.35-27.72,23.64-21.05,47.18-42.27,69.78-64.41,10.86-10.65,19.45-23.6,29.17-35.43,6.97-8.48,13.46-17.51,21.33-25.08,11.58-11.13,19.23-24.6,26.12-38.69,6.13-12.54,11.99-25.23,17.92-37.87.49-1.04.67-2.22-.55-4.09-4.17,6.66-8.96,13.01-12.41,20.03-16.02,32.67-40.34,58.37-68.52,82.89.52-2.01.48-2.9.9-3.35,27.59-29.47,46.83-64.61,67.35-98.9,8.03-13.43,16.51-26.59,24.79-39.87.99-1.58,2-3.15,1.83-5.66-8.05,8.56-16.28,16.97-24.13,25.72-24.75,27.61-52.08,52.5-80.28,76.48-50,42.53-99.62,85.51-150.04,127.54-20.7,17.25-43.05,32.52-64.65,48.68-60.96,45.62-126.49,84-192.63,121.4-67.84,38.37-135.65,76.78-203.65,114.86-36.03,20.17-72.17,40.17-108.75,59.32-36.56,19.14-72.97,38.66-111.02,54.82-18.06,7.67-36.05,15.51-54.1,23.2-1.78.76-3.78.99-6.54-.09,3.15-1.72,6.32-3.41,9.46-5.16,13.65-7.61,27.29-15.25,40.95-22.85,13.96-7.76,28.29-14.93,41.86-23.32,35.95-22.23,73.53-41.67,108.93-64.92,41.2-27.05,83.88-51.81,125.37-78.43,46.82-30.04,93.02-61.04,139.48-91.63,38.4-25.28,76.87-50.45,115.17-75.88,25.53-16.95,50.61-34.59,76.27-51.34,18.12-11.83,37.3-22.06,55.26-34.12,36.76-24.7,74.39-48.2,108.52-76.66,22.08-18.42,41.32-39.62,60.19-61.66-1.62.99-3.31,1.88-4.84,3-30.58,22.51-61.1,45.09-91.71,67.56-23.9,17.55-47.76,35.15-71.88,52.38-27.1,19.37-54.02,39.05-81.83,57.36-82.92,54.58-165.83,109.2-249.56,162.53-51.39,32.73-104.01,63.59-156.58,94.41-41.93,24.58-84.09,48.88-127.12,71.44-61.91,32.47-124.48,63.72-187.18,94.65-78.59,38.76-158.92,73.55-241.38,103.33-5.21,1.88-10.33,4.01-16.16,4.6,2.43-1.32,4.79-2.78,7.29-3.93,39.3-18.13,78.86-35.71,117.88-54.43,66.64-31.97,133.09-64.37,199.33-97.17,29.82-14.76,58.58-31.68,88.48-46.27,41.03-20.03,80.38-43.11,120.49-64.8,6.72-3.64,13.06-8,19.61-11.95,11.69-7.05,23.02-14.82,35.19-20.89,25.87-12.9,47.84-31.42,71.28-47.82.7-.49,1.12-1.38.98-3.38-4.54,2.45-9.03,5-13.64,7.33-18.4,9.31-36.8,18.63-55.27,27.81-25.04,12.45-50.2,24.66-75.21,37.17-46.45,23.23-92.86,46.56-139.24,69.94-60.98,30.73-123,59.18-186.11,85.27-7.03,2.91-13.96,6.05-21.71,7.7,4.58-2.75,9.02-5.78,13.77-8.21,51.54-26.45,103.3-52.48,154.62-79.33,32.43-16.97,64.22-35.15,96.32-52.75,8.17-4.48,16.58-8.56,24.6-13.29,39.56-23.35,79.28-46.44,118.44-70.43,33.8-20.7,67.19-42.09,100.29-63.88,38.11-25.1,75.76-50.91,113.52-76.54,32.25-21.89,64.27-44.12,96.62-65.86,10.2-6.86,21.24-12.47,31.68-18.99,11.86-7.41,23.42-15.28,35.2-22.81,29.18-18.65,58.28-37.43,87.66-55.75,18.08-11.27,36.87-21.42,54.92-32.74,14.92-9.36,29.51-19.31,43.73-29.7,20.72-15.12,40.99-30.85,61.41-46.38,2.73-2.08,5.22-4.47,6.81-8.11-1.07.51-2.18.95-3.2,1.55-38.35,22.82-76.92,45.29-114.93,68.65-21.54,13.24-42.18,27.95-63.23,41.99-14.96,9.98-30.02,19.83-44.88,29.97-55.29,37.76-111.26,74.58-165.57,113.72-54.4,39.2-110.26,76.1-167.66,110.54-45.65,27.4-92.85,52.26-139.65,77.71-34.52,18.77-69.41,36.84-104.31,54.9-22.76,11.78-45.66,23.34-68.8,34.35-47.19,22.46-94.56,44.54-141.9,66.67-22.91,10.71-45.94,21.18-68.93,31.72-1.38.63-2.9.98-4.92.18,9.65-5.78,19.13-11.86,28.96-17.31,52.73-29.18,105.66-58,158.3-87.33,78.58-43.8,155.66-90.07,229.84-141.06,40.38-27.76,79.69-56.94,117.37-88.28,47.13-39.21,94.21-78.49,141.31-117.73,1.89-1.58,3.89-3.03,5.84-4.54-.57-.66-1.13-1.32-1.7-1.98-8.01,5.66-16.17,11.11-23.99,17.02-30.04,22.7-59.61,46.03-90.01,68.23-37.93,27.7-76.16,55.03-114.89,81.58-44.51,30.51-89.13,60.92-134.74,89.75-94.93,60-192.57,115.33-293.52,164.65-112.35,54.89-227.57,102.95-347.24,139.41-73.21,22.3-147.36,41.54-221.1,62.11-4.44,1.24-9,2.02-13.84,1.84,5.34-1.7,10.67-3.44,16.03-5.08,66.84-20.51,132.8-43.56,198.16-68.42,102.79-39.09,203.22-83.46,302.06-131.66,103.45-50.46,202.5-108.53,299.97-169.5,50.31-31.48,99.14-65.09,146.89-100.3,47.32-34.9,90.52-74.45,132.06-116.01,38.91-38.94,76.28-79.23,111.89-121.15,33.66-39.63,67.06-79.61,95.4-123.24,25.2-38.79,49.05-78.54,71.73-118.85,32.02-56.9,53.93-117.99,70.21-181.13,7.73-29.97,15.43-59.95,23.11-89.94.48-1.89.62-3.88-.23-6.17-1.43,3.77-2.96,7.5-4.27,11.31-18.82,54.39-37.38,108.87-56.49,163.16-12.49,35.48-25.34,70.87-43.58,103.96-6.59,11.95-13.21,23.89-20.37,35.5-18.7,30.33-36.7,61.11-58.16,89.67-4.79,6.37-8.61,13.46-12.99,20.15-1.41,2.15-3.18,4.08-6.03,7.68,0-4.49-.44-7.25.07-9.83,5.98-30.62,6.81-61.53,5.45-92.58-.53-12.11-3.57-23.63-7.89-34.91-4.27-11.14-11.64-19.34-22.41-24.35-7.84-3.65-15.81-7.05-23.77-10.42-31.43-13.31-60.79-30.19-88.38-51.32,4.29,9.17,23.12,28.75,42.81,41.95,16.52,11.07,34.27,20.32,52.36,30.89-38.72-10.81-72.15-29.45-102.09-54.8-29.92-25.33-52.61-56.19-69.94-92.26-18.5,25.45-41.64,44.24-65.24,62.66-15.21,11.88-29.97,24.4-44.38,37.24-34.52,30.78-72.71,56.17-113.12,78.39-6.13,3.37-12.21,6.82-18.35,10.17-.51.28-1.26.12-2.66.22,20.09-14.6,39.68-28.77,59.2-43.05,19.62-14.35,36.18-31.89,53.89-51.13-14.9,7.42-27.78,14.13-40.92,20.32-32.83,15.45-66.01,30.19-98.59,46.16-16.68,8.18-32.46,18.24-48.46,27.75-3.9,2.32-7.07,5.87-9.68,10.29,7.97-4.23,15.94-8.47,24.09-12.79.17,1.12.52,1.98.3,2.16-23.56,20.02-41.1,45.37-61.04,68.61-14.97,17.44-30.05,34.82-45.77,51.57-16.52,17.61-35.91,31.73-57.07,43.39-50.56,27.85-103.42,50.62-157.3,71.07-30.73,11.66-61.74,22.59-94.77,34.63,38.78-4.88,74.61-13.24,108.46-27.97,33.82-14.72,66.69-31.58,102.26-48.6-2.8,2.64-3.84,3.95-5.17,4.82-49.55,32.73-100.32,63.23-156.29,83.97-13.73,5.09-27.69,9.59-41.72,13.76-9.74,2.89-14.79,8.85-16.79,18.72-5.68,27.89-7.55,25.17,10.3,51.77,6.66,9.92,14.17,19.27,20.77,29.45-8.13-3-13.6-9.51-19.99-14.76-6.65-5.47-13.32-10.9-20.19-16.52-2.31,9.64.73,29.85,7.44,42.57-.4-3.56-.64-7.16-1.26-10.69-.68-3.9-1.72-7.73-2.96-13.13,2.73,1.82,4.52,2.79,6.05,4.07,8.94,7.49,17.87,14.99,26.68,22.63,3.01,2.61,5.53,5.79,8.49,8.47,7.18,6.48,8.87,13.53,3.48,22.1-2.25,3.57-3.49,7.78-5.88,13.31,4.04-.74,6.58-.85,8.86-1.68,39.72-14.47,79.7-28.26,119.01-43.77,47.37-18.69,94.16-38.84,141.21-58.36,2.06-.85,4.16-1.62,6.62-1.52-89.42,48.43-180.88,92.26-278.91,123.43.5,3.76.9,7.29,1.45,10.8.62,3.95,1.52,7.85,2.04,11.81,1.11,8.38-1.51,15.01-9.21,19.31-7.26,4.06-14.4,8.33-21.71,12.57-.16.47-.67,1.17-.54,1.7,3.15,12.61.08,22.89-10.88,30.55-2.97,2.08-5.37,4.96-8.08,7.43-8.14,7.43-16.85,10.32-28.28,7.11-41.33-11.6-82.92-22.26-124.31-33.63-10.86-2.99-11.13-3.63-10.01-14.55,2.45-23.85,5.23-47.68,8.16-71.48,4.98-40.34,10.13-80.69,21.82-119.76,5.24-17.51,12.08-34.54,18.29-51.75,3.84-10.64,8.24-21.1,11.69-31.86,2.16-6.74,6.29-10.18,12.7-12.67,42.55-16.54,83.58-36.46,124.24-57.14.85-.43,1.49-1.27,2-2.52-112.9,47.45-229.06,85.46-346.53,120.1,2.93-1.36,5.83-2.79,8.79-4.06,60.58-25.97,121.41-51.35,181.69-78.01,69.42-30.7,138.72-61.66,209.87-88.2,34.31-12.8,68.71-25.35,103.05-38.07,3.64-1.35,7.14-3.06,10.16-6.32-9.34,1.65-18.72,3.12-28.02,4.99-51.78,10.43-101.35,27.99-150.4,47.1-20.15,7.85-39.64,17.38-59.67,25.58-16.62,6.81-33.24,13.97-50.46,18.87-28.22,8.03-55.66,18.03-82.96,28.58-2.66,1.03-5.45,1.74-8.66,1.33,9.58-4.57,19.18-9.08,28.73-13.73,19.74-9.61,39.54-19.09,59.13-28.99,25.85-13.07,51.34-26.86,77.32-39.66,27.12-13.37,51.73-30.13,73.72-50.87,6.52-6.14,13.66-11.62,20.2-18.11-86.28,38.36-173.14,75.18-262.69,105.72,1.74-.97,3.41-2.1,5.23-2.88,48.7-20.85,95.71-45.2,142.89-69.19,31.75-16.14,63.6-32.06,95.33-48.25,37.67-19.22,75.28-38.54,112.85-57.95,23.93-12.37,43.9-30.06,63.77-47.88,5.14-4.61,10.51-8.97,15.2-14.57-1.11.31-2.37.37-3.3.96-40,25.44-82.61,46.01-125.26,66.42-51.4,24.6-101.16,52.25-150.83,80.08-46.53,26.08-94.62,48.89-143.39,70.47-71.67,31.7-145.59,57.21-219.84,81.9-23.68,7.87-47.49,15.33-71.25,22.94-1.52.49-3.12.73-5.19.05,1.45-.8,2.81-1.81,4.35-2.36,97.03-34.73,190.2-78.29,282.63-123.52,52.37-25.63,103.79-53.04,153.68-83.26,16.86-10.22,32.53-22.01,47.27-35.12,14.18-12.62,28.74-24.81,42.96-37.39,5.39-4.77,10.3-10.09,15.43-15.16-.37-.66-.75-1.31-1.12-1.97-2.3.53-4.69.82-6.89,1.62-65.38,23.78-130.62,47.96-196.16,71.3-36.99,13.17-74.46,24.98-111.73,37.37-2.13.71-4.35,1.13-7.09.42,2.1-.99,4.15-2.12,6.32-2.94,61.74-23.3,121.36-51.43,181.07-79.35,39.2-18.34,78.5-36.47,117.72-54.76,44.4-20.7,87.37-44.11,130.17-67.91,30.99-17.23,60.59-36.21,88.16-59.98-.12,1.81.17,2.96-.28,3.45-15.37,17.08-30.77,34.12-46.24,51.11-20.24,22.22-45.42,37.91-70.69,53.49-9.07,5.6-18.04,11.36-27.11,16.96-20.67,12.77-37.17,30.13-53.5,47.79-10.17,10.99-21.15,21.23-31.68,31.89-3.48,3.52-6.66,7.33-8.98,12.68,2.93-1.54,5.91-2.99,8.79-4.63,44.85-25.56,84.59-57.88,122.5-92.63,12.78-11.71,25.31-23.73,38.73-34.67,12.89-10.51,27.03-19.46,40.14-29.72,12.32-9.64,24.62-19.46,35.74-30.41,7.47-7.36,14.05-16.21,18.9-25.5,8.47-16.2,15.99-32.98,22.66-50.01,12.93-32.98,30.29-63.02,55.64-88.01,9-8.88,18.64-17.1,27.99-25.62,1.85-1.68,3.71-3.34,4.9-6.19-2.01.8-4.1,1.45-6.02,2.42-66.27,33.49-132.45,67.17-198.8,100.5-67.86,34.09-136.58,66.41-206.55,95.92-41.08,17.33-82.95,32.8-124.48,49.06-2.07.81-4.28,1.28-6.97.51,6.19-2.8,12.36-5.64,18.57-8.38,78.06-34.34,154.65-71.72,229.83-111.96,76.05-40.71,152.04-81.51,228.03-122.34,21.41-11.5,42.63-23.35,64.07-34.81,7.92-4.23,16.26-7.66,24.31-11.66,8.85-4.39,15.73-10.94,21.27-19.18,7.97-11.86,16.37-23.42,24.85-35.48-1.76.55-3.78.9-5.54,1.77-33.69,16.75-67.15,33.99-101.07,50.28-77.16,37.05-154.77,73.16-233.96,105.66-52.35,21.48-105.43,41.16-158.2,61.62-7.05,2.73-14.15,5.31-21.79,6.6,10.7-4.79,21.37-9.66,32.11-14.36,103.45-45.29,204.83-94.86,305.26-146.46,53.01-27.24,106.33-53.88,159.61-80.58,11.6-5.81,23.73-10.56,35.44-16.16,2.74-1.31,6.02-3.68,6.92-6.3,5.88-17,11.49-34.04,23.94-48.34-1.44.38-3,.52-4.31,1.18-30.04,15.11-60.08,30.22-90.05,45.46-17.81,9.05-35.53,18.29-53.26,27.51-49.34,25.66-98.52,51.64-148.06,76.9-24.02,12.25-48.69,23.22-73.11,34.68-3.48,1.63-7.2,2.76-11.45,2.57,7.48-4.05,15.09-7.86,22.41-12.18,50.2-29.62,100.34-59.34,150.48-89.04,35.53-21.05,70.66-42.82,106.67-63.02,33.68-18.89,68.29-36.11,102.47-54.11,13.26-6.98,26.4-14.17,39.7-21.06,25.86-13.39,52.62-24.88,81.8-27.78,18.46-1.83,37.24-.47,55.88-.43,1.49,0,2.98.89,4.41,1.35-18.06,3.94-36.05,7.08-53.59,11.88-32.82,8.99-61.18,25.93-84.67,50.71-3.66,3.86-7.3,7.83-10.34,12.18-4.3,6.16-8.03,12.72-10.9,19.98,1.29-1.21,2.72-2.3,3.83-3.66,18-21.95,41.89-35.77,66.75-48.16,7.13-3.55,14.66-6.35,22.11-9.21,9.49-3.64,19.4-4.23,29.52-3.27-18.59,2.47-36.32,7.42-51.85,18.23-15.08,10.5-31.48,19.4-43.91,33.23.46.77.93,1.54,1.39,2.31,2.88-1.22,5.94-2.15,8.61-3.72,6.59-3.89,13.27-7.73,19.45-12.22,19.98-14.49,42.24-22.18,66.79-23.9,18.72-1.31,37.31-1.4,55.58,3.58,5.73,1.56,11.37,3.48,17.67,5.43,11.43-18.24,22.49-37.53,35.19-55.66,12.77-18.22,27.19-35.29,39.68-54.1-9.57,8.28-19.01,16.72-28.74,24.81-9.99,8.31-20.04,16.58-30.46,24.32-10.22,7.58-17.98,18.48-29.82,23.87-.66-.61-1.32-1.23-1.98-1.84,2.24-2.92,4.39-5.92,6.74-8.75,23.91-28.64,46.69-58.29,73.6-84.28,11.73-11.34,23.81-22.38,36.38-32.77,18.02-14.91,35.36-30.42,50.44-48.35.53-.63,1.4-.99,2.99-.72-17.78,23.85-35.56,47.7-53.34,71.54.31.45.62.91.93,1.36,2.13-1.42,4.39-2.68,6.36-4.29,21.93-17.91,43.88-35.8,65.67-53.89,5.62-4.67,10.75-9.95,15.96-15.1,5-4.95,7.19-11.06,6.88-18.11-.57-13.06-3.91-25.52-8.15-39.87-1.7,6.1-2.88,10.31-4.45,15.93-7.46-11.01-16.92-17.07-26.54-23.02-26.91-16.63-54.3-32.57-80.43-50.35-26.76-18.2-48.44-41.7-63.69-70.6-3.4-6.43-6.25-13.15-9.81-20.69,3.41,24.18,13.33,62.22,56.85,108.87-8.18-7.54-16.84-14.64-24.44-22.73-15.98-17.02-30.99-34.93-43.1-54.98-18.37-30.42-30.16-62.99-30.78-98.97-.1-5.65-.01-11.3-.01-16.74-7.86,13.9-7.58,52.9,1,85.01,7.65,28.62,21.46,54.06,41.57,76.14-.67.49-1.34.97-2,1.46-5.39-6.02-11.06-11.82-16.13-18.11-24.86-30.83-39.83-66.35-45.39-105.17-5.54-38.76,3.73-75.44,21.81-109.95,1.82-3.47,3.67-6.92,6.01-11.31-10.37,6.45-23.93,27.04-32.68,47.05-7.81,17.88-8.18,37.27-11.34,56.11l-2.46-.18c-.31-8.13-1.19-16.29-.84-24.4,2.47-57.51,27.88-104.01,69.47-142.42,8.05-7.44,17.13-13.77,25.75-20.58,2.49-1.97,5.06-3.85,7.34-6.08-35.85,12.16-63.99,34.59-86.04,65.15l-1.83-1.3c1.71-3.38,3.23-6.88,5.17-10.12,12.14-20.2,27.79-37.33,45.81-52.44,20.77-17.41,43.22-32.26,66.8-45.52,7.83-4.4,15.41-9.27,23-14.1,2.68-1.71,5.05-3.92,7.56-5.9-.15-.71-.29-1.43-.44-2.14-5.06-.21-10.33-1.43-15.15-.44-13.33,2.75-26.47,6.4-39.67,9.77-3.12.8-6.16,1.91-9.41,2.35,29.06-19.67,64.13-25.04,95.54-39.05-.24-.88-.49-1.75-.73-2.63-18.08,2.81-36.15,5.62-54.23,8.43,16.31-9.61,33.82-15.75,52.2-19.01,18.3-3.25,36.77-5.6,57.3-8.67-12.2-3.62-22.93-4.82-33.71-4.59-10.59.22-21.17,1.43-32.41,2.25.64-1.1.85-2.09,1.42-2.37,22.86-11.29,46.43-19.78,72.38-20.69,21.27-.75,40.92,3.76,59.24,14.58,23.49,13.88,37.23,34.63,43.49,60.78,2.16,9.02,4.39,18.03,6.85,28.12-51.89-6.05-94.64,15.93-135.04,44.82,9.08-3.83,18-8.11,27.27-11.41,38.23-13.62,77.62-18.94,117.98-14.04,21.22,2.57,41.72,8.51,61.28,17.41,7.57,3.44,15.23,6.7,22.9,9.93,7.99,3.36,13.84,8.49,13.52,17.83-.4,11.66,6.38,16.32,16.28,20,24.11,8.96,48.85,15.43,73.94,20.78,16.78,3.58,16.67,3.54,12.62,20.16-2.26,9.27-4.07,18.64-6.27,28.84-2.12-1.11-3.39-1.47-4.25-2.27-34.24-32.08-73.94-54.17-119.51-65.7-7.07-1.79-13.92-4.52-20.8-7.02-22.53-8.2-45.19-11.11-68.32-2.33-8.21,3.12-16.57,5.86-24.62,9.68,17.46-1.19,34.56-6.23,52.32-1-8.43,1.93-16.86,3.87-25.28,5.8,0,.48,0,.95.01,1.43,1.3.12,2.65.55,3.89.33,24.21-4.44,47.86-.92,71.12,5.61,22.4,6.29,44.56,13.43,66.4,21.99-7.19-1.09-14.44-1.9-21.56-3.34-7.15-1.45-14.36-3-21.23-5.41-35.82-12.62-71.86-12.09-108.14-2.42-.55.15-1,.71-2.32,1.71,19.8,0,38.83-.98,57.7.29,17.27,1.16,33.85,5.93,49.06,15.24,8.14,4.98,17.75,7.51,26.41,11.72,21.25,10.33,42.37,20.93,63.47,31.55,11.56,5.82,22.99,11.9,33.85,19.56-9.43-3.35-19.15-6.05-28.24-10.16-38.35-17.32-78.53-29.34-118.62-41.64-1.18-.36-2.52-.24-3.99.29,47.52,18.26,95.67,35,137.72,64.9-35.84-13.65-71.1-28.85-108.25-38.88,47.05,22.45,91.03,51.16,140.72,68.37-8.64-2.2-17.37-4.06-25.88-6.68-8.9-2.74-17.66-5.97-26.32-9.4-11.96-4.74-24.2-8.3-37.71-11.11,1.49,2.24,2.34,3.52,3.21,4.82-.61.26-1.24.79-1.61.65-25.26-9.49-50.19-19.56-73.43-33.64-24.9-15.09-51.43-26.66-80.16-32.51-7.76-1.58-15.65-2.53-23.82-2.14,5.1,1.34,10.18,2.8,15.31,4.01,34.08,8.07,64.9,23.5,94.97,40.99,20.69,12.03,42.09,22.86,63.36,33.85,25.63,13.25,53.7,19.66,81.08,27.88,20.07,6.03,40.35,11.39,60.55,17,1.53.42,3.32.87,4.77.48,9.15-2.45,14.37,1.7,12.68,10.59-4.26,22.36-15.24,40.27-35.18,52.08-12.32,7.3-24.68,14.54-36.98,21.89-10.16,6.08-18.42,14.04-24.95,24.04-8.44,12.92-9.92,26.61-5.94,41.13,4.54,16.57,12.85,31.36,21.94,45.77,2.14,3.39,4.95,5.24,9.1,4.88,2.32-.2,4.68,0,6.99-.23,30.1-2.98,59.91,0,89.6,4.67,9.14,1.44,18.14,3.83,28.36,6.04,6.49-14.12,16.67-25.96,27.56-37.08,9.06-9.24,18.67-18.05,28.75-26.16,10.37-8.34,21.84-15.28,32.36-23.44,6.76-5.24,12.33-12.02,19.06-17.31,7.03-5.53,14.37-10.97,22.33-14.94,30.54-15.22,63.16-20.48,97.05-18.27,18.66,1.22,36.98,4.39,55.16,11.39,4.86-6.43,9.56-12.83,14.43-19.08,33.1-42.44,75.88-69.13,128.89-79.28,23.23-4.45,46.3-4.9,69.27,1.54.51.14,1.19-.35,2.11-.66-2.62-8.47-5.1-17-7.88-25.43-10.6-32.21-16.38-65.41-17.02-99.14-.86-45.44-14.71-87.05-33.67-127.45-13.65-29.09-31.12-55.65-51.64-80.52-17.82-21.59-39.91-31.07-67.24-30.85-5.85.05-10.32,1.92-14.19,5.91-2.09,2.15-4.21,4.29-6.07,6.64-20.01,25.28-46.55,36.83-78.34,37.46-4.33.09-8.66.34-12.99.38-13.64.12-26.14,3.79-37.97,10.71-12.06,7.05-24.45,13.59-36.97,19.78-9.59,4.74-12.99,3.96-20.21-3.81-4.06-4.36-7.75-9.2-10.86-14.27-4.57-7.46-8.82-15.29-.94-24.53-3.33-.51-5.46-1.01-7.61-1.15-15.2-1-29.45-5.29-42.83-12.47-9.46-5.08-10.05-5.34-7.66-15.53,4.85-20.72,10.08-41.36,15.87-61.84,4.34-15.35,9.67-30.44,14.84-45.54,1.35-3.94,3.77-7.5,6.46-12.72,5.61,10.12,10.35,18.67,15.58,28.11,4.86-9.14-1.09-17.96,2.17-26.16,1.17,7.84,1.87,15.78,3.63,23.48,1.73,7.58,4.53,14.92,7.4,24.08,2.53-8.94,4.54-16.01,6.54-23.08.62.03,1.24.06,1.85.1,1.57,5.12,3.15,10.24,5.16,16.8,4.29-8.61.29-17.87,6.98-23.93-2.49,8.23.99,15.35,4.07,24.05,1.25-2.99,1.94-4.64,3.11-7.44,1.31,6.23,2.4,11.45,3.5,16.66,3.7-11.84,6.15-23.87,17.19-31.32,0,0-.19-.22-.19-.22-1.27,2.57-2.46,5.18-3.84,7.69-6.06,11.03-4.86,22.17-1.17,33.38.93-1.28,1.28-2.6,1.18-3.89-1.09-14.64,6.9-23.96,18.71-30.33,5.74-3.1,12.28-5.19,18.71-6.47,23.22-4.63,46.65-7.38,70.41-6.17,1.66.09,3.33.19,4.99.13,1.27-.04,2.53-.33,3.8-.51-27.68-7.68-55.13-14.34-83.81-11.68-4.3.4-8.66.04-12.97.33-12.35.83-24.39,2.96-35.3,9.28,3.77-5.78,10.04-7.76,16.02-9.17,13.26-3.12,26.62-6.27,40.13-7.74,37.19-4.05,73.83-.27,109.84,9.83,2.46.69,4.99,1.12,7.66,1.07-14.87-9.4-31.22-14.76-48.39-17.28-13.82-2.03-27.86-2.52-41.73-4.29-20.8-2.65-41.53-5.85-62.29-8.77-5.22-.74-10.47-1.32-15.65-2.68,40.78-.75,81.1,6.64,122.13,5.66-26.35-6.01-52.47-13.72-79.13-17.55-26.78-3.85-54.11-3.83-81.44-6.57,19.34-2.57,38.61-6.21,58.04-7.44,27.9-1.77,55.93-2.85,83.87-2.33,52.18.98,101.34,14.79,147.08,39.73,21.31,11.62,41.59,25.16,62.3,37.89,7.62,4.69,15.1,9.58,23.78,13.05-11.57-10.94-23.14-21.88-34.7-32.82,7.48,2.31,13.24,7.13,18.54,12.32,31.01,30.34,64.74,57.56,98.14,85.12,23.12,19.08,47.24,36.94,70.94,55.32,1.21.94,2.58,1.69,4.32,1.92-20.06-24.44-46.84-41.36-69.05-63.47,1.79,1.22,3.61,2.4,5.36,3.68,35.84,26.22,69.03,55.53,101.26,86.02,49.81,47.13,91.31,100.66,123.12,161.38,10.47,19.99,18.47,41.29,27.25,62.14,2.24,5.31,3.15,11.18,2.9,17.37-4.99-10.78-9.99-21.55-14.98-32.33-.42.17-.83.34-1.25.51,7.28,21.52,15.31,42.83,21.62,64.63,6.34,21.88,10.96,44.25,16.82,66.32,5.08-32.03.4-63.36-5.49-94.93,1.22,2.17,2.77,4.23,3.6,6.54,9.16,25.36,18.28,50.69,23.29,77.34,4.19,22.26,4.43,44.37-.2,66.5-2.66,12.7-5.63,25.33-8.63,37.95-.65,2.75-2.02,5.32-4.53,7.68.53-18.28,1.07-36.55,1.6-54.83-.73-.26-1.46-.52-2.19-.78-29.17,80.04-70.68,152.08-131.23,212.84-60.21,60.42-128.36,108.48-206.02,143.13-.4-.56-.8-1.13-1.2-1.69,1.32-.86,2.59-1.79,3.96-2.57,1.44-.83,2.98-1.48,4.45-2.26,64.27-34.04,123.66-74.85,174.78-126.94,30.66-31.25,59.12-64.4,79.6-103.41,8.01-15.25,13.63-31.74,20.25-47.71.72-1.74.84-3.73.03-6.16-1.36,1.99-2.78,3.94-4.08,5.97-19.36,30.43-42.14,58.31-64.7,86.32-34,42.22-72.42,80.06-114.97,113.61-50.98,40.2-106.83,71.44-169.58,89.18-32.84,9.29-66.65,12.89-100.72,14.02-1.63.05-3.26.15-5.44.25,0,2.56-.12,4.73.02,6.88,1.58,23.59,4.1,47.17,4.63,70.78,1.03,45.64-7.17,90.15-18.59,134.16-13.95,53.75-37.76,103.02-68.23,149.14-12.21,18.49-21.97,37.79-28.72,58.99-13.84,43.49-31.08,85.71-50.45,127.05-1.63,3.49-3.06,7.07-3.7,10.99,26.07-36.42,44.85-76.47,59.19-118.77.63.24,1.27.47,1.9.71-2.55,10.18-5.14,20.35-7.64,30.55-12.49,50.87-28.72,100.47-50.75,148.05-21.89,47.26-47.47,92.45-78.66,134.24-38.85,52.05-77.93,103.95-117.59,155.39-11.55,14.99-24.84,28.78-38.32,42.12-56.7,56.07-116.41,108.72-180.62,156.11-39.94,29.48-79.95,58.87-120.28,87.81-25.16,18.05-50.98,35.17-75.94,54.1,1.8-.63,3.74-1.01,5.37-1.93,71.73-40.4,142.21-82.57,208.21-132.18,54-40.59,103.25-86.26,151.97-132.72,33.13-31.59,62.15-66.84,91.91-101.46,22.38-26.04,45.79-51.24,72.35-73.11,9.66-7.95,21.17-13.67,31.88-20.33,3.67-2.28,7.47-4.35,11.24-6.47,19.42-10.96,38.83-21.93,58.29-32.81,2.84-1.59,5.95-2.67,9.64-2.85-1.53,1.12-2.97,2.41-4.62,3.32-27.72,15.23-52.49,34.46-73.29,58.1-14.02,15.92-25.77,33.85-38.32,51.04-6.68,9.14-12.95,18.58-19.34,27.92-1.82,2.66-3.43,5.45-3.7,9.42,18.72-18.43,37.17-37.15,56.25-55.22,19.23-18.21,39.08-35.76,59.37-52.94-15.24,20.82-33.96,38.63-49.95,58.75-15.82,19.91-31.29,40.11-45.67,61.34,1.58-1.38,3.33-2.6,4.72-4.15,13.35-14.87,26.25-30.16,40.05-44.6,18.41-19.26,36.92-38.5,56.5-56.54,14.06-12.96,32.36-19.6,49.4-27.91,4.4-2.15,8.99-3.88,14.25-4.39-6.59,4-12.9,8.58-19.82,11.88-27,12.88-49.07,31.42-67.71,54.8-24.08,30.2-49.12,59.63-73.74,89.4-2.25,2.73-4.41,5.54-5.5,9.43,2.52-2.28,5.14-4.47,7.56-6.84,18.08-17.73,36.17-35.45,54.16-53.27,3.3-3.27,6.89-6.54,9.21-10.47,12.15-20.62,29.93-35.54,48.96-49.22,29.29-21.05,60.35-39.13,93-54.36,10.2-4.76,21.01-8.65,31.94-11.32,37.2-9.11,74.46-18.4,113.24-17.25,9.93.29,19.85,1.01,29.74,3.36-4.12,0-8.24.07-12.36-.01-34.14-.72-67.67,3.3-101.07,10.59-21.25,4.64-41.94,10.45-61.95,18.82-6.13,2.56-12.34,5.22-17.89,8.8-15.64,10.1-30.9,20.77-46.41,31.07-7.49,4.97-15.13,9.72-22.83,14.36-28.18,16.97-46.94,41.85-60.23,71.36-.22.48.16,1.22.32,2.24,6.76-8.37,13.27-16.59,19.94-24.69,15.2-18.44,32.9-33.73,54.16-45.08,24.65-13.15,48.69-27.45,73.25-40.78,16.46-8.94,34.2-14.52,52.49-18.71,23.36-5.36,46.43-12.04,70.38-14.52,1.66-.17,3.29-.63,4.95-.68,25.95-.74,51.91-1.43,77.91-1.15-12.45.91-24.88,2.38-37.34,2.61-36.9.7-72.58,8.46-108.35,16.63-23.36,5.34-44.96,14.36-65.76,25.71-18.96,10.35-36.93,22.2-53.94,35.59-5.65,4.45-4.75,10.31-7.1,17.69,7.33-4.56,12.99-8.24,18.81-11.67,17.18-10.12,34.42-20.15,51.63-30.21.29-.17.62-.27.89-.45,36.54-24.3,78.9-29.02,120.66-35.13,18.73-2.74,37.86-2.75,56.79-4.11,9.97-.72,19.93-1.51,29.87-2.55,23.12-2.42,45.89.57,68.63,4.16,3.58.57,7.44,1.25,10.49,3.04,18.48,10.8,39.68,15.29,58.37,25.55,7.5,4.12,15.22,7.82,24.13,10.36-2.31-2.37-4.53-4.85-6.95-7.1-34.51-32.2-75.34-51.68-121.28-61.74-30.74-6.73-61.78-10.15-93.07-11.47-45.36-1.91-90.67-.55-135.67,5.72-18.75,2.62-37.22,7.23-55.81,10.94-2.81.56-5.61,1.12-8.42,1.67-.21-.62-.42-1.25-.63-1.87,7.22-2.9,14.31-6.21,21.69-8.63,57.93-18.94,117.13-27.4,178.19-22.75,40.68,3.1,80.76,9.11,119.85,20.7,22.65,6.71,44.97,14.62,65.78,26.12,5.14,2.84,10.04,6.1,15.86,9.65-15.15-23.79-40.29-33.81-60.39-50.6,1.51.53,3.06.95,4.5,1.61,1.51.69,2.93,1.59,4.36,2.43,13.47,7.97,27.24,15.48,40.33,24.03,24.01,15.68,44.73,34.91,58.32,60.55,8.25,15.57,15.26,31.79,22.77,47.74,1.83,3.88,3.45,7.85,5.66,11.57-5.22-39.49-17.52-75.81-44.78-106.16-16.95-18.87-36.65-33.92-58.54-46.25-15.61-8.79-33.14-11.89-50.56-14.82-65.51-11.01-131.31-11.48-197.22-4.5-18.85,2-37.58,5.21-56.37,7.82-1.94.27-3.92.24-6.11-.93,24.4-5.77,48.68-12.06,73.21-17.21,48.38-10.15,97.2-16.77,146.8-14.98,65.51,2.36,128.07,16.9,185.83,48.45,42.91,23.43,76,57.1,97.45,101.44,14.99,30.98,20.03,63.89,18.44,98.1-2,42.98-14.36,83.11-32.67,121.67-5.57,11.72-10.84,23.61-17.04,34.99-5.51,10.11-12.12,19.63-19.02,29.12,19.16-38.75,29.7-79.59,30.2-123.14-1.06,3.14-2.31,6.24-3.16,9.43-15.68,59.04-43.1,113.22-71.41,166.71-27.12,51.27-63.96,95.56-105.74,135.95-33.7,32.59-70.4,61.12-109.22,87.13-45.39,30.42-90.57,61.15-136.25,91.11-51.25,33.61-102.98,66.49-156.1,97.12-37.23,21.46-74.25,43.29-111.27,65.11-5.32,3.13-10.11,7.16-15.15,10.77-2.97,1.25-5.95,2.49-8.92,3.74.38.66.76,1.33,1.14,1.99,2.53-1.98,5.07-3.95,7.6-5.93ZM1815.58,887.91c-13.83,2.22-27.55,5.2-39.6,12.58-15.87,9.73-31.28,20.22-46.86,30.43-1.56,1.02-2.89,2.39-4.32,3.6,6.9-2.29,12.81-5.9,18.71-9.53,21.56-13.26,43.19-26.37,67.58-34.02,1.62-.51,2.9-2.14,4.34-3.25,7.68.31,13.66-4,20.44-6.15-.3-.77-.6-1.54-.9-2.31-6.46,2.88-12.93,5.77-19.39,8.65ZM1490.66,715.43c-.91,1.27-2.39,2.44-2.64,3.83-2.28,12.39-4.86,24.77-6.37,37.27-2.41,20.09-4.04,40.27-6.08,60.41-.56,5.55-1.39,11.07-2.1,16.6,2.42-2.28,3.75-4.87,4.15-7.59,2.81-19.36,5.72-38.71,8.01-58.13,2.06-17.45,3.36-34.99,4.95-52.59.22-3.5.44-7,.66-10.51h-1.36c.26,3.57.52,7.14.77,10.71ZM904.08,1314.3c8.11-2.73,16.3-2.81,24.61-1.01,2.26.49,4.63.6,6.95.7,19.42.81,38.27,4.58,56.88,10.1,31.75,9.42,60.64,23.93,84.97,46.72,6.49,6.08,12.51,12.64,18.75,18.99.73-2.22.4-3.74-.38-4.99-5.13-8.18-9.39-17.17-15.78-24.23-11.57-12.79-23.23-26.03-37.01-36.16-21.08-15.5-45.84-22.4-72.26-22.63-16.96-.15-33.92-.64-50.89-.87-1.54-.02-3.52.21-4.56,1.14-4.12,3.73-7.95,7.79-11.89,11.73-12.2,8.16-21.37,19-28.28,31.83,3.52-2.96,6.66-6.28,9.54-9.82,3.29-4.04,7.09-5.4,12.3-4.1,4.82,1.2,9.84,1.66,14.79,2.23,37.02,4.23,72.33,14.19,105.84,30.69,17.47,8.6,33.83,18.54,47.18,32.93.29.31,1.08.15,2.7.31-3.93-5.32-7.36-10.08-10.91-14.75-21.69-28.6-49.51-48.07-84.7-56.29-17.91-4.18-36.19-5.26-54.53-5.62-4.86-.1-9.7-.81-15.08-1.29.79-2.55,1.27-4.07,1.75-5.6ZM2106.32,1856.58c10.63-6.8,21.04-13.95,31.93-20.3,17.25-10.07,34.76-19.69,52.24-29.35,17.43-9.62,36.14-15.05,55.96-17.1,12.24-1.27,24.41-3.31,36.6-5.07,22.38-3.24,44.67-7.4,67.15-9.56,20.17-1.93,40.54-2.18,60.82-2.21,11.61-.01,23.21,1.95,34.83,2.91,1.97.16,3.99-.24,7.29-.47-2.21-1.54-2.91-2.3-3.78-2.59-3.16-1.04-6.32-2.18-9.57-2.81-28.15-5.45-56.29-10.12-85.23-6.28-14.5,1.93-29.31,1.45-43.82,3.34-23.74,3.1-47.36,7.1-70.99,10.98-27.25,4.48-52.82,13.43-75.8,29.16-8.98,6.14-16.87,14.15-28.03,16.69-.83.19-1.45,1.22-2.2,1.82-3.84,3.09-7.32,6.88-11.6,9.1-9.17,4.74-13.92,12.14-15.65,21.9-8.37-.44-11.82,6.39-15.99,12.1,5.27-4.09,10.55-8.18,15.82-12.26ZM2014.06,823.42c-3.69,3.2-7,7.04-11.13,9.49-27.51,16.29-49.48,39.21-72.94,60.36-1.64,1.48-2.61,3.69-5.07,7.27,14.88-9.79,27.19-19.06,40.54-26.43,26.75-14.75,54.28-28.09,81.11-42.7,19.86-10.81,39.36-22.34,58.6-34.23,17.54-10.84,34.53-22.59,51.74-33.97.79-.52,1.36-1.38,2.04-2.08-.42-.54-.84-1.08-1.26-1.62-13.62,6.78-27.49,13.12-40.81,20.45-17.04,9.38-34.82,16.78-53.61,21.47-9.49,2.37-18.32,5.66-26.76,10.55-7.39,4.28-15.17,7.87-22.78,11.77,2.47-2.05,4.83-4.26,7.44-6.12,12.73-9.07,25.52-18.05,38.29-27.05,21.23-14.97,42.25-30.27,67.98-37.11,4.54-1.21,8.66-3.97,12.97-6.02-.22-.68-.44-1.36-.67-2.04-3.53.26-7.11.24-10.59.82-8.87,1.49-17.66,3.38-26.53,4.89-35.79,6.09-68.94,20.13-102.03,34.19-25.85,10.99-47.98,27.35-65.73,49.31-19.15,23.67-35.29,49.22-47.49,77.17-1.38,3.17-2.14,6.61-3.18,9.92,14.4-17.8,27.27-36.36,42.74-52.94-4.99,10.95-14.55,19.44-16.54,31.87,7.2-7.23,13.62-15.05,21.38-21.16,15.42-12.15,31.34-23.71,47.53-34.82,11.18-7.68,23.14-14.21,34.75-21.24ZM2255.78,649.92c-2.48,4.35-4.96,8.7-8.13,14.25,55.29-20.23,109.99-37.77,161.84-65.02-1.76-.24-2.44-.5-3.06-.39-36.48,6.23-72.18,15.38-106.76,28.69-4.02,1.55-7.92,3.48-11.74,5.49-10.88,5.71-21.68,11.55-32.52,17.34,3.86-3,7.37-6.64,11.63-8.89,36.48-19.21,73.07-38.21,109.68-57.15,3.81-1.97,8-3.22,12.02-4.8l-.8-1.97c-49.01,1.04-91.85,21.89-134.68,42.96,34.05-21.14,68.09-42.11,105.58-56.5-.28-.8-.32-1.27-.47-1.31-32.74-7.93-65.58-10.49-98.81-2.67-41.88,9.85-69.1,36.66-87.18,74.28-1.23,2.57-2.87,5.58.48,8.06,3.43,2.55,5.55.05,7.6-2.14,5.69-6.08,11.19-12.32,16.95-18.33,4.43-4.62,9.13-8.97,13.71-13.44-4.22,6.93-9.98,12.46-14.19,19-4.1,6.36-7.58,13.52-3.92,22.59,5.52-7.98,11.03-15.96,16.55-23.94.28.15.57.3.85.45-2.75,8.92-5.49,17.84-8.24,26.77.74.37,1.47.74,2.21,1.1,6.25-9.56,11.66-19.81,20.45-27.4-3.27,10.83-10.33,20.16-11.66,32.55,8.4-9.16,15.94-17.38,24.96-27.22-1.18,11.42-9.73,18.8-7,30.26,4.29-5.01,7.65-8.94,9.72-11.35,6.22-.54,10.57-.91,14.92-1.29ZM1420.23,840.86c-9.96-.04-18.15-5.56-28.94-8.15,14.93-8.66,24.35-20.15,32.42-32.94,2.31-3.66,4.55-7.43,7.35-10.71,11.24-13.16,17.98-49.68,13.15-66.76-.64,3.98-1.38,7.89-1.89,11.83-3.43,26.47-14.56,48.95-34.71,66.67-10.51,9.24-21,18.52-31.93,27.24-19.62,15.63-37.22,33.31-54.02,51.84-2.33,2.57-4.28,5.88-5.25,9.19-2.13,7.27-2.71,15.07-5.39,22.09-6.66,17.49-12.01,35.27-15.02,53.74-.8,4.93-1.64,9.86-2.75,14.73-.83,3.63-3.17,4.82-7.8,2.48.91-16.16,1.84-32.94,7.4-48.53,5.47-15.34,13.71-29.69,20.74-44.48-3.49.84-5.94,2.49-7.67,4.71-4.29,5.51-8.64,11.04-12.26,16.99-11.27,18.54-23.02,36.56-39.71,50.99-9.15,7.91-15.51,18.32-20.17,29.49-8.28,19.85-13.05,40.52-13.05,62.14,0,3.57.53,7.14.82,10.7,4.92-26.05,16.9-48.77,30.89-70.71-1.37,7.03-3.7,13.74-5.69,20.56-1.95,6.71-3.73,13.47-5.26,20.29-1.6,7.14-3.08,14.33-4.08,21.57-.95,6.88-1.2,13.85-1.76,20.79.36,0,.71-.01,1.07-.02,7.44-19.08,14.88-38.16,22.33-57.23-2.24,23.77-8.23,46.77-8.88,72.47,1.22-3.77,1.86-5.64,2.44-7.53,6.36-20.67,12.6-41.39,19.14-62.01,2.58-8.15,5.71-16.15,12.99-23.58-2.92,12.4-6.02,23.15-7.86,34.1-1.82,10.84-5,21.81-1.75,34.4,8.93-10.25,9.57-22.85,15.94-35.08.82,5.72,1.33,9.21,2.09,14.52,6.85-10.37,9.95-20.72,18-28.05-4.06,13.9-10.99,27.22-8.49,42.1.73.24,1.46.49,2.19.73,6.45-11.83,12.91-23.65,19.36-35.48.48.16.96.33,1.45.49-3.75,13.87-7.49,27.74-11.24,41.61.56.33,1.12.65,1.68.98,10.97-18.11,23.94-34.53,39.71-48.72-2.43,6.14-5.8,11.67-8.83,17.38-3.13,5.89-6.82,11.61-8.27,19.13,11.99-10.85,23.17-20.97,34.67-31.37,3.11,3.26,5.39,6.1,8.13,8.4,2.72,2.28,3.79,7.75,10.16,5.02-10.88-15.43-24.68-27.37-40.62-36.21-9.53-5.28-10.98-4.51-8.48-17.64,3.73-19.61,8.17-39.09,12.46-58.59,1.49-6.76,3.44-13.43,5.18-20.14.56,15.58-1.86,30.92,1.66,46.43,1.06-3.21,2.12-6.42,3.51-10.62,4.87,8.81,3.74,19.15,12.68,26.94.26-5.47,1.01-9.39.54-13.16-2.35-19.01-1.81-37.93,1.47-56.74,1.7-9.75,3.97-19.4,5.98-29.09.74.15,1.49.29,2.23.44-.93,7.53-1.97,15.05-2.77,22.59-2.18,20.35.16,40.55,1.69,60.83,1.01,13.4,5.59,24.42,15.34,33.54,17.18,16.06,31.21,34.59,42.77,55.03.93,1.64,2.19,3.1,3.3,4.64-.17-4.38-1.75-7.94-3.57-11.38-8.48-16.08-19.77-30.07-32.97-42.44-13.71-12.85-17.38-28.98-17.04-48.34,1.58,2.04,2.33,2.96,3.03,3.91,7.66,10.44,14.93,21.2,23.05,31.26,15.54,19.26,29.84,39.23,39.67,62.11,1,2.32,2.37,4.48,3.57,6.71.25-5.78-.68-10.99-1.83-16.16-5.35-24.12-19.25-43.62-33.77-62.84-9.03-11.95-17.78-24.13-26.34-36.42-2.29-3.28-3.43-7.36-5.3-11.52,15.53,18.93,30.45,37.23,45.5,55.43,11.96,14.47,22.16,29.97,29.05,47.53.73,1.85,2.03,3.48,3.07,5.22.91-4.44.92-8.5-.2-12.22-5.15-17.19-9.94-34.53-16.21-51.31-3.68-9.84-9.17-19.22-15.13-27.93-9.59-14-20.26-27.26-30.44-40.86-2.47-3.29-4.82-6.67-7.22-10.01,10.57,7.52,19.84,15.95,28.53,24.95,9.02,9.34,17.49,19.2,26.17,28.86,8.18,9.12,16.32,18.27,24.48,27.41-10.95-36.77-29.62-69.13-53.84-98.51,29.43,20.19,49.31,48.58,67.71,78.38-2.46-15.06-4.76-29.79-12.32-43.11-10.68-18.8-24.46-34.93-41.3-48.32-7.76-6.17-16.45-11.17-24.71-16.7,7.59,1.83,14.95,2.46,20.67-5.05.65,2.38,1.02,3.73,1.59,5.82,3.31-9.49,6.59-17.83,9.12-26.4,2.62-8.88,4.84-17.91,6.61-27,1.63-8.38,2.42-16.92,3.57-25.39-4,6.63-5.96,13.6-8.28,20.44-7.24,21.41-17,41.39-33.27,57.59ZM1864.78,792.9l-.31-2.24c-16.95-.24-33.9-.75-50.84-.66-16.92.09-33.83.77-50.75,1.18,37.16-7.71,74.74-11.25,114.58-14.23-5.14-1.38-8.23-2.46-11.41-3.01-19.36-3.34-38.72-6.66-58.11-9.8-24.1-3.91-48.27-5.8-72.65-2.38-11.15,1.56-22.37,2.57-33.56,3.83-.1-.71-.2-1.42-.31-2.13,14.02-2.19,28.03-4.39,43.87-6.87-9.04,0-16.28-.45-23.45.11-9.95.77-20.05,1.44-29.71,3.72-9.8,2.31-15.32-.95-20.66-8.95-13.67-20.49-30.78-38.17-52.6-49.61-30.14-15.8-61.73-28.35-96.2-31.38-1.58-.14-3.24.62-4.86.96-.06.68-.13,1.36-.19,2.04,3.02.95,6.06,1.87,9.07,2.86,12.63,4.15,25.84,7.1,37.75,12.77,16.49,7.85,32.02,17.73,47.9,26.84,2.06,1.18,3.76,2.96,5.63,4.47-.28.48-.57.96-.85,1.44-16.45-6.79-32.91-13.58-49.24-20.32-6.84,8.19-8.95,17.26-10.27,26.47-3.76,26.36-7.06,52.79-10.9,79.14-1.12,7.7-1.34,15.08,2.05,23.57,11.18-18.46,11.42-38.85,14.17-58.21,2.82-19.86,2.62-40.15,3.74-60.25,1.71,13.53,2.14,27.04,1.59,40.51-.55,13.3-2.22,26.55-3.16,39.85-.94,13.15-1.58,26.33-2.35,39.49.23,0,.47,0,.7,0,6.63-21.53,13.25-43.05,19.88-64.58.18,0,.36,0,.54,0-.57,7.05-1.15,14.1-1.87,22.95,11.24-9.82,13.83-23.43,22.85-33.5,2.29,9.48-2.28,16.54-4.34,24.07-2,7.31-6.61,14.06-5.27,23.44,8.08-7.3,14.81-14.19,22.36-20.02,14.84-11.45,17.25-12.41,22.66-13-12.43,13.75-25.7,28.18-38.69,42.86-24.52,27.7-44.4,58.09-55.1,93.99-5.12,17.19-8.85,34.47-8.58,52.58,1.69-2.1,2.71-4.41,3.7-6.74,7.26-17.16,14.51-34.31,21.76-51.47,18.28-43.32,44.47-81.04,79.59-112.44,1.79-1.6,3.89-2.86,5.84-4.28-5.99,8.76-13.35,15.84-20.3,23.29-14.77,15.85-29.78,31.67-39.93,51-8.96,17.07-16.9,34.69-24.79,52.3-5.44,12.14-9.59,24.86-15.13,36.96-5.75,12.58-9.63,25.45-9.84,39.56.75-.81,1.6-1.4,1.98-2.21,9.05-19.27,18.31-38.45,26.98-57.89,9.72-21.81,23.05-41.3,38.02-59.65,5.19-6.36,11.91-11.58,18.37-16.79,6.73-5.43,14.02-10.14,20.99-15.28,6.53-4.82,12.95-9.78,19.42-14.67-.96,3.2-2.92,5.26-5.04,7.14-11.73,10.36-23.83,20.33-35.12,31.14-6.93,6.63-13.33,14.05-18.76,21.95-13.05,18.96-24.54,38.91-31.97,60.83-7.68,22.68-14.94,45.51-22.26,68.31-2.06,6.4-3.7,12.93-5.53,19.4.64.22,1.29.44,1.93.66,14.53-39.74,28.78-79.56,53-114.79,24.08-35.02,52.71-65.54,87.37-90.28-35.48,32.97-67.26,68.97-90.15,111.92-22.81,42.81-34.09,89.46-43.7,136.57,1.81-2.14,2.77-4.56,3.67-7.01,9.65-26.25,18.77-52.71,29.12-78.68,6.14-15.41,13.47-30.48,21.59-44.96,18.15-32.39,43.71-58.64,71.5-82.81,37.97-33.03,82.21-52.4,131.77-60.18,17.65-2.77,35.24-5.94,52.86-8.93ZM1138.71,1264.04c-7.58-11.41-17.8-20.36-28.97-28.05-42.12-28.98-88.16-43.6-139.99-41-35.66,1.79-65.9,14.49-92.76,36.88-15.2,12.67-28.22,27.54-38.86,44.08-15.12,23.5-30.03,47.24-43.19,71.86-15.99,29.9-36.55,55.55-62.93,76.62-18.57,14.83-34.91,31.87-50.02,50.1-6.46,7.79-12.29,16.14-16.02,25.95,4.87-2.39,9.16-5.28,13.1-8.59,17.11-14.35,34.34-28.65,54.39-38.73,23.51-11.83,41.88-29.78,57.84-49.78,15.32-19.2,28.51-40.15,41.9-60.81,15.54-23.97,32.92-45.93,57.17-61.86,11.65-7.65,22.55-16.43,33.84-24.63,1.94-1.41,4.11-2.49,6.18-3.73-2.14,3.89-5.06,6.56-7.91,9.31-6.71,6.47-13.84,12.56-19.96,19.54-11.84,13.51-23.02,27.6-34.62,41.32-8.19,9.69-13.87,20.63-17.61,32.7,6.94-7.26,12.72-15.44,19.69-22.44,18.56-18.62,37.74-36.63,56.49-55.06,15.56-15.29,33.63-27.21,51.86-38.85,12.92-8.25,27.19-12.41,42.76-10.98,8.62.79,17.29,1.19,25.85,2.35,33.01,4.49,64.49,13.15,91.78,33.81ZM2266.81,1803.68c.15.55.3,1.11.44,1.67-4.26,1.44-8.47,3.12-12.8,4.29-30.84,8.37-59.09,22.07-85.25,40.4-39.25,27.48-73.69,60.35-106.46,95.01-22.89,24.21-44.93,49.22-67.19,74.02-19.14,21.32-38.08,42.83-57.03,64.31-2.22,2.52-4,5.43-5.98,8.16,10.6-9.02,19.98-18.88,29.57-28.55,24.41-24.6,48.92-49.1,73.36-73.66,20.69-20.78,40.93-42.03,62.11-62.3,30.18-28.88,62.73-54.81,99.96-74.25,11.19-5.84,22.62-11.38,34.35-16.01,24.91-9.83,50.95-14.85,77.55-18.01,36.78-4.37,73.52-8.3,110.61-6.74,36.11,1.52,71.6,6.56,105.72,19.17,2.77,1.02,5.66,1.74,8.49,2.6.21-.63.42-1.25.63-1.88-21.96-13.66-43.3-28.21-67.92-37.42-43.44-16.24-88.19-19.83-133.77-15.1-20.13,2.09-40.05,6.31-60.05,9.63-13.44,2.23-27.06,3.75-40.25,7.02-30.81,7.64-57.35,24.43-83.92,40.96-1.69,1.05-3.26,2.31-4.82,3.57-14.74,11.96-29.65,23.7-44.14,35.96-37.23,31.51-70.47,67.03-102.54,103.63-16.47,18.79-32.27,38.17-48.27,57.37-7.46,8.95-14.67,18.09-22,27.15.54.46,1.08.93,1.62,1.39,26.43-28.14,53.07-56.08,79.23-84.47,40.49-43.94,82.46-86.13,131.57-120.75,34.36-24.23,70.91-43.43,111.84-53.76,5.08-1.28,10.23-2.28,15.34-3.41ZM2336.14,162.87c26,29.94,54.51,57.37,82.65,85.22-40.66-23.57-73.32-57.89-112.46-83.39,28.24,41.16,180.47,234.02,189.12,240.2-7.64-13.47-14.48-26.35-22.09-38.75-12-19.55-22.72-39.91-38.24-57.21-8.19-9.13-14.82-19.67-22.04-29.66-1.41-1.96-2.27-4.32-3.38-6.49,46.71,46.25,82.01,101.66,126.13,149.86-12.93-27.73-31.84-51.8-49.07-76.8-17.42-25.28-36.79-49.23-55.3-73.76.59-.53,1.18-1.06,1.77-1.59,19.59,18.91,40.17,36.91,58.49,56.98,20.18,22.11,38.4,46.03,57.21,69.37,6.47,8.03,12.55,16.43,18.12,25.1,24.43,38.06,41.89,79.4,56.96,121.85,7.88,22.2,12.59,44.85,10.64,68.56-.12,1.5.15,3.03.25,4.55,4.01-4.42,6.16-9.55,9.19-14.1,6.38-9.59,6.94-19.75,4.7-30.65-3.72-18.09-10.84-34.9-18.46-51.58-13.34-29.2-31.15-55.85-48.35-82.74-20.44-31.97-42.49-62.91-63.9-94.26-12.8-18.74-26.51-36.75-42.95-52.52-1.78-1.71-3.23-3.77-4.83-5.66,5.76,2.86,10.4,6.87,15,10.91,4.75,4.18,9.59,8.26,14.16,12.62,4.82,4.6,9.32,9.53,14.02,14.25,4.47,4.48,9.09,8.82,13.51,13.35,4.42,4.53,8.7,9.2,12.99,13.85,4.29,4.66,8.61,9.29,12.72,14.1,4.33,5.06,8.33,10.41,12.64,15.48,3.77,4.43,6.52,9.88,11.77,12.97-8.25-14.57-16.51-29.02-26.18-42.47-25.55-35.55-53.64-69.1-87.86-96.59-26.45-21.25-54.43-40.61-81.99-60.45-14.7-10.58-29.96-20.4-44.96-30.56ZM1297.3,1976.14l1.75,1.78c1.7-.93,3.47-1.77,5.1-2.81,30.08-19.11,60-38.47,90.25-57.31,62.19-38.75,124.3-77.63,186.93-115.64,35.6-21.61,70.97-43.49,105.53-66.74,28.72-19.32,58.8-36.49,86.36-57.69,32.19-24.77,66.01-47.43,98.42-71.93,34.3-25.93,67.1-53.73,98.24-83.44,1.6-1.52,2.85-3.4,4.27-5.12-2.89.61-4.78,1.94-6.64,3.33-29.07,21.77-57.55,44.39-87.35,65.1-41.56,28.89-83.55,57.26-126.44,84.13-31.56,19.78-64.16,38.22-97.57,54.64-31.69,15.57-63.21,31.27-94.02,48.56-59.58,33.43-113.94,74.03-165.37,118.68-27.67,24.03-54.08,49.52-83.55,71.45-5.49,4.09-10.61,8.67-15.91,13.03ZM1742.09,2240.73c.41.45.81.89,1.22,1.34,2.35-1.05,4.8-1.94,7.05-3.18,15.44-8.54,31.02-16.85,46.22-25.82,58.27-34.38,116.04-69.49,167.07-114.49,25.24-22.25,51.16-43.73,76.23-66.17,33.76-30.21,67.05-60.96,100.43-91.59,13.43-12.33,28.92-21.3,45.48-28.52,7.92-3.45,16.15-6.2,24.24-9.25,56.11-21.15,112.71-40.65,172.23-50.04,23.64-3.73,47.15-9.2,71.38-7,5.39.49,10.77.99,16.16,1.49-6.44-2.12-12.97-3.31-19.55-3.82-37.97-2.94-75.89-2.69-113.71,2.28-30.87,4.06-60.7,11.23-88.57,26.01-25.55,13.56-51.82,25.75-77.79,38.53-1.06.52-2.25.79-4.21,1.47.89-1.43,1.07-2.07,1.5-2.37,29.22-19.88,58.87-39.22,92.18-51.56,45.66-16.91,93.3-24.46,141.82-25.98,21.26-.67,42.59.63,64.95,1.05-2.08-1.17-3.36-2.07-4.77-2.64-2.16-.87-4.36-1.71-6.62-2.23-25.06-5.77-50.28-10.07-76.17-8.92-20.3.9-40.61,2.33-60.92,2.29-32.68-.07-62.48,10.01-90.14,25.89-25.41,14.59-49.32,31.8-70.61,52.14-29.63,28.31-58.75,57.15-88.33,85.52-41.59,39.9-83.12,79.87-125.23,119.22-20.93,19.57-43.46,37.29-68.02,52.32-26.14,15.99-52.07,32.31-78.01,48.63-18.58,11.69-37.02,23.59-55.53,35.4ZM1674.64,1206.47c12.03-49.74,30.1-96.74,59.98-138.62-1.73,7.06-4.59,13.65-7.68,20.13-11.22,23.49-20.89,47.55-25.96,73.2-.95,4.8-1.8,10.25-.48,14.76,3.84,13.16,4.07,26.21,1.64,39.51-.28,1.56.1,3.24.18,4.86,3.44-10.34,5.13-20.71,4.47-31.51-.34-5.56-.28-11.57,1.43-16.77,9.14-27.85,18.79-55.6,35.3-80.16,13.74-20.43,28.27-40.34,42.41-60.5,15.81-22.53,33.96-42.73,57.16-58.01,4.33-2.85,8.13-6.49,12.68-10.17-1.58-.23-2.31-.58-2.8-.38-32.03,13.43-58.57,33.91-79.39,61.79-3.79,5.07-8.01,9.83-12.03,14.73,6.95-13.45,15.31-25.77,22.51-38.74,5.63-10.13,12.59-18.72,21.74-25.68,1.32-1.01,2.62-2.06,3.84-3.19.92-.84,1.7-1.84,4.08-4.46-22.33,9.98-35.35,26.36-47.81,43.33-2.36,3.22-4.4,6.67-6.83,9.84-2.42,3.16-5.12,6.09-7.71,9.13-.35-.33-.7-.67-1.05-1l27.33-41.5c-20.76,15.07-37.65,33.61-54.56,52.14,32.37-51.76,74.7-93.83,125.13-128.18-2.91.36-5.26,1.38-7.44,2.67-21.78,12.87-43.74,25.47-65.25,38.79-24.08,14.91-47.54,30.77-68.18,50.39-13.65,12.97-25.54,27.3-32.76,44.84-10.71,25.99-17.64,53.03-20.47,81.03-.35,3.51-1.04,7.33,1.6,12.22,4.41-15.41,8.14-29.17,12.31-42.8,4.16-13.63,8.54-27.22,16.7-40.06-4.63,18.77-9.41,36.63-13.36,54.66-4.02,18.32-10.96,36.09-10.91,55.27,5.11-17.98,10.92-35.65,20.34-51.83,9.44-16.21,15.73-34.15,27.3-49.33-6.56,22.96-15.21,45.12-21.98,67.85-6.92,23.24-8.95,47.52-11.49,71.74ZM1065.42,1118.16c-31.45,6.86-62.97,13.03-89.09,33.72,9.68-2.21,19.03-5.56,28.66-7.69,15.92-3.52,31.99-6.37,48.03-9.31,33.87-6.21,67.62-6.59,100.94,3.22,18.59,5.47,36.65,12.3,51.73,25.12,1.57,1.33,3.18,2.61,5.39,4.43-.11-1.97.09-2.74-.21-3.19-16.76-25.28-38.01-44.67-68.82-50.71-19.26-3.78-38.77-6.31-57.98-10.26-15.59-3.2-30.43-1.44-45.16,3.68-8.8,3.06-17.55,6.26-26.36,9.29-3.75,1.29-7.6,2.31-11.4,3.45.57-2.8,1.67-4.03,3.01-4.88,15.53-9.88,32.46-15.58,50.91-15.32,12.97.18,25.95,1.23,38.88,2.4,22.55,2.03,45.04,4.28,67.04,10.31,20.18,5.53,37.97,14.27,50.46,31.75.23.32.92.31,1.6.51-5.69-23.57-20.17-39.16-43-47.46.47-.64.93-1.28,1.4-1.92,9.61,4.76,19.22,9.51,30.25,14.97-1.13-2.37-1.52-3.48-2.14-4.46-19.53-30.76-48.04-47.44-83.68-51.52-11.74-1.34-23.95.1-35.82,1.39-45.66,4.99-81.27,27.68-109.22,63.34-2.73,3.48-4.75,7.51-7.1,11.29,40.79-32.89,71.91-50.45,89.84-50.95-11.35,5.72-25.23,12.08-38.48,19.55-13.6,7.67-25.87,17.26-36.44,31.46,6.9-2.15,12.06-4.31,17.43-5.28,6.8-1.23,13.77-1.51,20.68-2.18,16.22-1.58,32.44-3.15,48.66-4.72ZM1938.12,2468.28c-63.9,49.21-125.71,100.91-186.44,153.91.42.55.84,1.1,1.27,1.65,55.13-37.71,110.25-75.42,165.38-113.14-25.7,30.78-54.34,58.52-83.05,86.4,9.94-5.31,19.54-11.08,28.88-17.24,34.79-22.95,65.46-49.83,88-85.72,23.29-37.07,52.53-69.56,83.22-100.69,1.36-1.38,2.51-2.97,4.47-5.32-27.73,15.56-54.5,29.73-80.39,45.32-38.78,23.36-77.19,47.34-115.29,71.79-26.12,16.77-49.92,36.65-71.87,58.64-2.57,2.57-4.88,5.41-7.3,8.13,56.07-37.95,115.25-69.71,173.13-103.74ZM1143.91,1351.67c-16.52-50.52-54.5-78.44-101.49-97.12,4.57.13,8.84.71,12.84,2.06,13.23,4.48,26.29,9.49,39.57,13.83,22.23,7.27,39.87,21.03,55.27,38.11,2.06,2.28,4.24,4.46,6.37,6.68.44-2.19-.14-3.62-.84-5-8.74-17.32-22.33-30.52-36.6-43.18-15.27-13.56-32.92-22.56-52.71-27.19-11.65-2.73-23.51-4.54-35.24-6.98-19.34-4.03-36.42.1-52.99,11.2-20.42,13.68-36.74,31.72-54.97,47.73-.9.79-1.37,2.09-2.48,3.85,82.51-10.44,151.6,13.29,206.24,76.44-2.79-6.51-5.94-12.28-9.46-17.8-25.51-40.03-60.76-66.42-107.51-76.78-13.14-2.91-26.26-4.26-39.63-1.86-8.46,1.51-16.96,2.75-27.3,4.42,2.36-1.56,3.03-2.2,3.82-2.5,17.78-6.71,36.22-9.69,54.94-6.45,15.35,2.66,31.01,5.63,45.4,11.32,36.84,14.56,71.52,32.88,95.03,66.73.57.82,1.14,1.65,1.72,2.47ZM1467.92,1220.8c-.75-6.82-1.51-13.64-2.25-20.45-3.46-31.82-13.13-61.77-27.61-90.17-10.15-19.91-25.63-34.52-45.63-44.58-13.06-6.57-24.25-4.05-34.64,5.4.84,3.03,1.61,5.84,2.48,8.98-5.1-.65-7.85-5.69-13.11-3.77-1.49,7.04,1.26,13.05,4.15,18.93,11.43,23.3,23.03,46.51,34.46,69.81,3.66,7.46,6.07,15.73,10.72,22.47,7.61,11,11.26,23.25,14.13,35.87,8.23,36.23,11.33,72.96,10.43,110.08-.24,10-.04,20.01-.04,29.24.07-.84.09-2.51.39-4.13,6.25-33.92,7.63-68.2,5.91-102.49-.88-17.51-3.62-35.13-7.53-52.24-4.59-20.06-11.31-39.65-17.25-59.4-5.03-16.74-12.32-32.3-24.47-45.23-1.64-1.74-2.77-3.97-4.13-5.97,12.73,11.01,24.81,22.34,31.39,38,4.38,10.42,8.92,20.8,12.83,31.4,8.64,23.4,17.22,46.85,20.84,71.72.82,5.64,1.86,11.26,2.8,16.88,1.85-1.89,1.94-3.52,1.84-5.14-1.57-24.92-4.27-49.64-9.03-74.25-5.81-30.06-14.05-58.86-31.58-84.39-.43-.62-.21-1.69-.51-4.76,31.17,43.17,49.1,90.1,65.37,138.18ZM1878.24,826.23c-2.28.28-4.58.51-6.85.86-15.8,2.41-31.52,5.61-47.4,7.1-31.56,2.96-60.19,13.26-86.38,31-21.66,14.67-40.1,33.04-58.79,51.01-22.93,22.04-42.52,47.11-56.4,75.79-13.46,27.81-25.25,56.46-37.18,84.99-4.81,11.51-8.04,23.69-11.98,35.56,2.36-.85,3.19-2.23,3.84-3.7,12.42-27.97,23.95-56.37,37.43-83.82,21.4-43.55,50.72-81.4,88.51-112.01,17.55-14.22,36.69-26.47,55.19-39.5,2.86-2.01,6.17-3.38,9.27-5.05-3.79,5.77-8.75,9.94-13.46,14.37-15.03,14.14-30.11,28.21-44.83,42.67-3.97,3.9-6.66,9.09-9.99,13.65-3.15,4.31-6.38,8.57-9.58,12.85.57.44,1.15.88,1.72,1.31,1.98-2.09,4.67-3.86,5.79-6.33,3.35-7.38,9.36-12.05,15.62-16.44,23.01-16.14,48.11-28.3,74.04-38.96,12.9-5.3,25.71-10.95,38.13-17.29,13.03-6.64,25.57-14.27,38.29-21.53,1.8-1.03,3.41-2.39,6.66-4.71-3.31.33-4.62.37-5.89.6-20.66,3.7-39.03,13.05-57.02,23.29-2.67,1.52-5.42,2.89-8.13,4.33,25.03-18.97,48.43-40.38,79.39-50.05ZM2503.05,667.75c-.13-.52-.25-1.03-.38-1.55-2.9.49-5.78,1.19-8.7,1.44-25.21,2.11-50.5,3.52-75.61,6.41-17.8,2.05-35.69.52-53.5,3.6-31.33,5.41-61.85,13.29-90.79,26.46-25.19,11.47-40.76,32.16-52.48,56.57,1.21.33,2.19.35,2.29.67,2.87,8.47-5.19,15.46-3.64,23.5,6.6-5.1,12.92-10.47,19.73-15.1,7.42-5.05,15.43-9.21,22.95-14.11,40.24-26.26,84.29-44.08,129.99-57.94,21.94-6.66,44.43-11.51,66.6-17.45,14.59-3.91,29.04-8.31,43.55-12.48ZM1913.49,766.4c17.65-14.79,36.72-27.33,57.08-38.09-2.21,3.42-5,6.11-7.84,8.75-4.63,4.3-9.52,8.34-13.89,12.88-5.75,5.98-8.48,11.38-9.3,15.99,6.98-5.52,14.61-11.35,22-17.48,5.32-4.41,10.99-8.67,15.24-14.01,4.29-5.39,9.14-9.53,15.1-12.67,20.91-10.99,41.53-22.56,62.75-32.91,26.31-12.83,53.61-23.28,82.36-29.52,1.07-.23,1.99-1.13,3.35-1.94-19.36-9.25-39.68-6.89-59.25-7.96-17.25-.94-34.19,4.25-50.52,10.4-25.91,9.75-50.73,21.78-74.58,35.73-7.29,4.26-13.85,9.85-20.44,15.21-15.93,12.97-26.89,30.29-39.74,45.96-.91,1.11-1.35,2.59-2.01,3.9.53.48,1.05.97,1.58,1.45,12.76-9.09,23.73-20.41,35.56-30.64,12.09-10.45,25.63-18.3,40.66-24.1-23.55,15.52-41.93,36.04-58.1,59.06ZM2324.87,263.6c-.61.29-1.21.59-1.82.88.65,2.46,1.03,5.05,2.02,7.37,2.86,6.73,5.73,13.47,9.03,19.99,17.05,33.76,30.05,68.73,34.83,106.59,2.58,20.41,6.25,40.76,10.77,60.83,4.86,21.57,15.76,40.73,27.41,59.49-.14-3.67-1.08-7.07-2.07-10.46-3.09-10.52-7.04-20.88-9.13-31.6-3.43-17.61-5.37-35.51-8.49-53.19-3.77-21.36-8.11-42.62-12.21-63.92,4.89,12.7,8.88,25.68,12.49,38.76,7.97,28.84,14.52,58.11,25.91,85.91,4.26,10.4,9.02,20.59,13.56,30.87.17-.13.34-.25.51-.38-6.03-28.04-12.07-56.08-18.1-84.12.74-.27,1.48-.54,2.22-.81,8.2,32.64,26.54,60.46,41.08,90.17-1.95-11.48-4.64-22.69-7.35-33.89-10.44-43.18-24.01-85.19-47.18-123.49-5.5-9.09-10.69-18.69-17.82-26.4-13.82-14.97-26.78-30.43-37.73-47.64-5.49-8.63-11.92-16.66-17.92-24.96ZM2121.62,11.08c3.42,1.49,4.8,2.25,6.28,2.71,31.52,9.9,61.91,22.47,90.72,38.71,30.59,17.25,58.19,38.78,85.31,60.85,25.05,20.39,48.75,42.44,73.99,62.57,28.62,22.84,58.14,44.56,87.53,66.41,30.27,22.51,58.96,46.76,84.69,74.41,1.32,1.42,2.74,2.75,4.12,4.12.51-.49,1.01-.99,1.52-1.48-9.76-12.97-19.34-26.08-29.3-38.9-28.89-37.16-64.25-67.42-102.17-94.85-44.24-32-88.54-63.93-132.99-95.65-17.88-12.76-35.9-25.38-54.45-37.13-23.11-14.65-47.58-26.76-74.06-34.24-12.74-3.6-25.5-7.36-41.17-7.54ZM2216.8,820.58c9.73-5.22,18.66-10.71,28.15-14.98,24.56-11.06,49.35-21.58,74.06-32.31,2.15-.93,4.33-1.76,6.5-2.64-9.27,8.08-19.21,14.7-29.48,20.74-21.8,12.82-43.79,25.31-65.66,38.02-3.3,1.92-6.33,4.3-10.32,7.05,2.03.32,2.75.68,3.18.47,35.67-17.22,71.08-35,107.05-51.55,22.02-10.14,44.67-19.06,67.48-27.31,23.78-8.6,44.74-21.94,65.73-35.55-23.01,4.98-43.37,18.25-67.17,20.57,4.54-2.83,9.32-5.04,14.09-7.27,5.13-2.39,10.3-4.69,15.36-7.22,4.34-2.18,9.69-2.82,14.4-9.17-13.31,2.51-24.42,4.41-35.44,6.73-25.06,5.28-50.18,10.07-74.26,19.43-19.33,7.51-37.48,17.12-55.63,26.94-18.68,10.1-33.73,24.8-49.83,38.18-3.15,2.62-5.36,6.37-8.22,9.87ZM1884.45,807.43c-.16-.84-.33-1.68-.49-2.52-27.54,1.57-55.15,2.42-82.61,4.89-38.22,3.44-72.11,18.7-101.51,42.85-46.03,37.81-80.63,84.6-104.71,139.1-2.19,4.94-3.57,10.24-5.33,15.37,1.44-.2,1.95-.66,2.25-1.23,2.16-4.12,4.19-8.31,6.43-12.38,17.32-31.53,38.53-59.84,67.57-81.7,5.31-4,10.46-8.28,15.29-12.84,21.54-20.33,46.43-35.61,72.99-48.27,37.7-17.97,77.66-29.44,117.8-40.34,4.07-1.11,8.21-1.96,12.32-2.94ZM1315.1,1868.81c.19.31.37.63.56.94,3.58-3.29,7.27-6.46,10.72-9.87,48.13-47.7,92.38-98.86,133.69-152.49,31.74-41.21,59.45-85.18,84.28-130.95,37.6-69.32,69.09-141.08,88.4-217.79,3.84-15.25,7.4-30.57,11.09-45.86-7.08,14.91-12.84,30.12-18.48,45.39-18.12,49.04-38.2,97.28-60.01,144.76-12.35,26.9-26.11,53.17-39.61,79.53-39.7,77.49-89.35,148.26-145.94,214.23-21.02,24.51-43.1,48.11-64.69,72.12ZM534.79,1664.34c.22.47.44.93.67,1.4,3.08-.98,6.24-1.76,9.23-2.97,18.18-7.38,36.17-15.23,54.5-22.22,25.16-9.59,50.41-19,75.9-27.64,17.31-5.87,35.16-10.14,52.7-15.37,29.2-8.71,57.95-19.29,81.47-38.98,18.74-15.69,34.95-34.39,52.29-51.76-2.33-.5-3.61.24-4.78,1.13-44.72,33.77-93.36,60.15-146.61,77.86-33.51,11.14-66.56,23.37-97.36,40.98-3,1.71-6.52,2.51-9.81,3.73-.27-.64-.54-1.27-.81-1.91,37.98-22.21,79.03-38.49,117.61-59.84-6.95.79-13.73,2.05-20.25,4.14-39.01,12.55-74.67,31.61-107.79,55.65-14.26,10.35-28.32,21.06-44.57,28.39-4.35,1.96-8.27,4.91-12.38,7.4ZM1330.63,2352.18c.3.65.6,1.3.9,1.94,3.45-1.75,6.9-3.5,10.36-5.24,9.79-4.96,19.53-10.02,29.38-14.87,31.02-15.31,62.43-29.87,93.01-46,34.71-18.31,68.87-37.69,102.95-57.16,58.72-33.55,116.27-68.94,167.81-113.12,23.25-19.93,45.94-40.5,68.82-60.84,2.58-2.29,4.75-5.03,7.12-7.57-4.54,1.7-7.76,4.83-11.23,7.65-19.38,15.73-38.18,32.27-58.37,46.88-47.19,34.18-95.83,66.2-146.39,95.29-75,43.16-149.74,86.77-224.59,130.17-13.23,7.67-26.51,15.25-39.76,22.87ZM2471.94,1693.59c27.19,19.87,52.72,37.87,77.51,56.82,32.16,24.59,55.65,55.97,70.13,93.92,1.5,3.94,3.02,7.87,4.53,11.81.51-12.25-2.3-23.78-6.12-34.88-3.88-11.27-8.41-22.49-14.15-32.9-5.74-10.41-12.83-20.19-20.27-29.5-7.19-9-15.58-17.05-23.45-25.52.5-.48,1-.95,1.5-1.43,19.74,14.05,37.8,29.89,53.86,48.28,16.25,18.61,23.71,41.58,33.99,63.43-1.13-11.03-2.99-21.78-5.87-32.25-7.22-26.31-20.78-48.39-41.95-66.35-37.07-31.44-81.21-43.9-129.72-51.43ZM1574.73,1859.5c43.25-19.53,80.14-49.35,123.21-68.35-12.7,9.12-25.92,17.42-38.68,26.37-12.44,8.72-24.42,18.12-36.6,27.22.4.53.8,1.05,1.2,1.58,101.69-56.53,197.08-121.56,277.55-206.79-4.03,2.06-7.53,4.85-11.08,7.59-22.15,17.06-43.84,34.78-66.57,51.03-52.05,37.2-106.92,69.85-163.51,99.7-11.11,5.86-21.42,13.36-31.65,20.72-12.95,9.32-25.44,19.28-38.13,28.95-5.24,4-10.5,7.99-15.75,11.98ZM1755.54,1336.67c-.66-.32-1.32-.65-1.98-.97-71.55,131.6-148.81,259.44-247.3,374.38,1.69-.62,2.42-.68,2.83-1.07,3.32-3.26,6.71-6.47,9.85-9.9,41.35-45.25,82.03-91.04,118.19-140.66,40.74-55.89,76.12-114.77,101.27-179.46,5.51-14.18,11.41-28.21,17.13-42.32ZM1725.51,1233.32c31.18-79.97,78.53-149.13,136.68-212.12-3.01.46-6.02.92-10.15,1.55,11.86-11.31,22.58-22.11,33.94-32.2,11.4-10.13,23.43-19.55,35.18-29.27-3.87.11-6.64,1.72-9.42,3.32-26.04,15.01-49.05,34.26-73.1,52.07-13.6,10.08-24.53,22.46-33.22,36.82-11.88,19.63-23.67,39.32-35.06,59.24-10.56,18.46-21.57,36.76-27.54,57.43-4.25,14.69-8.56,29.36-12.68,44.09-1.76,6.3-3.1,12.71-4.63,19.08ZM1285.93,1250.17c.79-.18,1.58-.36,2.37-.54-.63-27.85-1.26-55.69-1.89-83.54.35-.08.69-.16,1.04-.24,7.52,28.69,15.04,57.38,22.44,85.6,0-7.34.06-15.14-.02-22.94-.08-8-.11-16-.5-23.99-.36-7.54-1.15-15.05-1.76-22.58.76-.11,1.53-.21,2.29-.32,1.24,4.02,2.94,7.97,3.65,12.09,4.12,23.95,7.98,47.94,12,71.91.58,3.47,1.61,6.86,2.43,10.29.74-.13,1.48-.26,2.22-.39-.57-23.63-1.53-47.27-1.6-70.9-.09-33.11-12.59-62.3-27.44-90.86-.86-1.66-2.33-3-4.28-5.46-2.65,3.57-5.04,6.24-6.8,9.27-7.12,12.27-11.16,25.49-12.6,39.66-1.98,19.43.01,38.6,2.86,57.74,1.75,11.75,3.72,23.47,5.59,35.21ZM2099.73,645.98c.08-.66.16-1.31.24-1.97-5.78-1.24-11.51-3.27-17.34-3.59-37.91-2.11-75.3.05-110.65,15.81-7.87,3.51-15.7,7.32-22.97,11.9-9.27,5.84-17.67,13.08-26.96,18.89-23.64,14.8-41.92,34.78-57.37,57.63-1.79,2.65-3.06,5.66-4.62,8.59,5.04,3.93,6.96-.05,9.34-2.5,10.45-10.74,20.85-21.52,31.36-32.2,1.69-1.72,3.8-3.05,5.71-4.55-8.43,15.74-22.11,27.43-30,43.38,2.61-.37,4.93-1.06,6.26-2.61,12.56-14.58,29.17-25.36,39.52-42.06,1.32-2.13,3.87-3.56,5.97-5.15,20.83-15.76,43.92-27.53,67.48-38.57,32.97-15.44,66.67-27.12,104.02-23.01ZM1762.72,1221.67c1.96-4.11,3.43-7.03,4.77-10,10.75-23.98,21.65-47.82,36.16-69.91,16.99-25.88,33.98-51.7,54.06-75.36,21.08-24.84,42.07-49.77,63.11-74.65,1.93-2.29,3.95-4.5,5.93-6.75,1.94-2.2,3.88-4.4,5.82-6.6-17.94,11.34-36.48,21.44-50.12,37.89-2.08,2.51-5.02,4.32-7.58,6.43-4.85,4.02-10.31,7.5-14.47,12.14-13.76,15.36-27.74,30.6-40.38,46.86-31.53,40.55-46.94,88.16-58.28,137.4-.06.26.22.61.98,2.55ZM2040.49,2138.15c.35.39.71.79,1.06,1.18,2.56-1.42,5.14-2.82,7.69-4.27,29.22-16.61,58.38-33.35,87.68-49.83,45.93-25.83,94.07-46.96,143.08-66.09,40.38-15.76,81.9-27.92,124.94-33.92,21.11-2.94,42.4-4.59,63.61-6.83-21.28-.33-42.59-.19-63.81,1.3-55.28,3.89-108.17,17.61-159.08,39.5-70.7,30.41-135.92,70.28-198.89,114.11-2.17,1.51-4.19,3.22-6.29,4.84ZM347.56,2045.9c7.8,10.09,13.03,21.11,25.08,25.4-6.94-10.39-7.65-22.07-8.97-35.95,6.02,7.26,10.7,12.91,15.38,18.55.56-7.33-3.43-12.06-6.81-17.22-3.04-4.64-6.44-9.59-7.53-14.85-2.74-13.33-4.5-26.88-6.16-40.4-.53-4.34.48-8.88.79-13.33,1.36,17.45,3.48,34.41,8.1,51.17,3.63,13.2,14.85,18.88,23.53,27.2-.81-4.18-2.46-7.76-3.62-11.5-6.61-21.27-12.92-42.63-19.72-63.83-2.96-9.22-3.66-18.48-.85-27.51,4.32-13.93,9.54-27.59,14.53-41.31,1.43-3.94,3.41-7.68,5.14-11.51-4.01,3.28-7.09,7.14-9.16,11.48-7.71,16.2-15.13,32.54-22.58,48.86-14.91,32.65-17.79,67.26-16.59,102.52.33,9.59,3.71,18.21,9.04,26.06,2.48,3.64,5.28,7.08,11.5,8.78-3.01-5.48-5.13-9.34-7.2-13.12,1.89-1.21,2.9-1.86,4.09-2.62-5.14-7.77-9.15-15.68-7.98-26.85ZM1877.45,969.59c-.52-.52-1.05-1.03-1.57-1.55-2.99,2-6.02,3.94-8.95,6.02-9.5,6.74-18.86,13.69-28.5,20.21-3.29,2.23-7.67,2.88-10.88,5.18-19.42,13.87-35.23,31.26-49.61,50.23-28.1,37.1-49.27,77.44-59.29,123.15-1.83,8.36-4.44,16.87-1.79,27.42,1.29-3.86,2.04-6.01,2.74-8.18,11.35-35.2,27.32-68.12,51.47-96.27,12.07-14.06,22.36-28.99,30.41-45.46,8.67-17.74,21.12-32.03,36.14-44.64,13.71-11.52,26.59-24.04,39.84-36.12ZM2298.84,220.42c-.58.23-1.15.46-1.73.69,1.18,3.3,2.3,6.64,3.56,9.91,3,7.75,7.08,15.25,8.95,23.26,8.31,35.61,17.61,71.1,23.49,107.13,6.69,41.03,16.56,80.78,33.98,118.56,1.54,3.33,3.31,6.56,4.98,9.83.38-3.73-.63-6.87-1.15-10.1-2.45-15.43-5.22-30.83-7-46.34-1.44-12.54-1.39-25.25-2.41-37.84-2.25-27.77-8.76-54.4-20.9-79.67-6.19-12.87-12.49-25.95-16.36-39.61-4.79-16.86-13.03-31.92-20.51-47.45-1.4-2.9-3.25-5.58-4.9-8.37ZM2145.7,1218.19c-11.48,14.37-22.08,28.83-33.9,42.21-22.77,25.78-48.61,48.15-76.15,68.91-48.53,36.6-99.78,68.71-153.35,97.24-10.82,5.76-21.8,11.24-32.7,16.85,1.59.96,2.74.72,3.8.26,21.36-9.26,43.13-17.68,63.97-28,43.52-21.54,87.1-42.79,125.4-73.68,39.94-32.21,74.35-68.56,98.4-114.15,1.62-3.07,2.97-6.29,4.53-9.64ZM2184.07,1934.39c.22.49.45.98.67,1.46,2.44-.71,4.91-1.32,7.31-2.16,21.66-7.52,43.25-15.26,64.99-22.59,36.56-12.32,73.28-24.04,111.12-32.02,28.63-6.04,57.4-7.01,86.41-4.61,3.03.25,6.04.67,9.07,1.02-26.69-9.44-54.05-15.58-82.17-12.88-21.1,2.02-42.29,5.66-62.75,11.12-32.79,8.76-64.41,21.24-94.48,37.14-13.7,7.25-26.8,15.63-40.17,23.5ZM1342.32,1158.36c-.36.08-.73.15-1.09.23-8.58-17.6-17.08-35.25-25.8-52.78-1.48-2.97-2.45-6.94-8.5-7.51,1.51,6.13,2.52,11.61,4.22,16.86,6.98,21.48,13.88,43,21.36,64.32,14.49,41.28,23.97,83.68,29.5,127.02.12.98.78,1.88,1.18,2.82,1.65-3.61,2.21-6.87,2.13-10.13-.5-22.94-.85-45.89-1.79-68.81-1.71-41.76-13.71-81.06-29.43-119.41-2.41-5.87-5.82-10.9-12.67-14.78,7.2,21.45,14.03,41.81,20.86,62.16ZM2273.07,2268.87c.37.4.73.8,1.1,1.19,6.85-4.58,13.99-8.76,20.48-13.8,31.82-24.68,63.72-49.28,95.05-74.58,11.08-8.95,21.85-18.83,30.67-29.94,21.71-27.36,42.26-55.63,63.13-83.65,3.36-4.52,6.02-9.57,8.83-14.48,1.22-2.12,2.02-4.47,3.88-8.72-2.44,2.29-3.31,2.85-3.84,3.64-15.57,23.43-35,43.65-54.6,63.5-21.96,22.24-45.47,42.95-68.21,64.42-17.42,16.45-34.7,33.05-52.01,49.62-14.86,14.23-29.66,28.52-44.49,42.79ZM2472.47,1890.13c.01-.59.02-1.18.03-1.77-9.39-1.05-18.78-2.06-28.16-3.14-53.83-6.2-105.36,3.2-155.18,23.29-18.49,7.45-36.58,15.9-54.86,23.87-3.43,1.5-6.91,2.91-10.78,4.54,1.64.88,2.53,1.35,3.77,2.01-12.2,5.96-23.58,11.51-34.95,17.06,4.69.1,8.74-1.21,12.74-2.63,48.54-17.26,97.28-33.92,147.37-46.21,33.3-8.17,66.8-15.18,101.32-15.67,6.25-.09,12.48-.88,18.72-1.34ZM2527.82,2168.17c-.54-.57-1.07-1.14-1.61-1.7-8.48,8.33-16.84,16.8-25.48,24.96-19.59,18.52-39.49,36.7-58.94,55.37-25.3,24.28-52.11,46.76-82.02,65.02-40.32,24.62-81.37,48.05-122.13,71.96-11.93,7-23.93,13.87-35.9,20.8,3.45-.09,6.41-1.27,9.26-2.65,23.34-11.33,46.77-22.5,69.97-34.11,25-12.5,49.96-25.09,74.62-38.24,34.1-18.2,64.21-41.55,88.78-71.62,17.29-21.16,35.76-41.2,55.4-60.2,9.76-9.44,18.72-19.7,28.05-29.59ZM2218.51,796.39c39.28-23.72,80.26-42.7,122.92-57.96,28.47-10.18,57.5-18.81,86.21-28.32,10.41-3.45,20.68-7.35,30.95-11.18,2.66-.99,5.12-2.51,9.7-4.8-3.96,0-5.56-.19-7.1.03-9.86,1.45-19.68,3.35-29.58,4.42-18.52,2-37.07,3.63-55.09,8.78-49.53,14.17-94.61,37.16-135.26,68.73-8.01,6.22-15.2,13.51-22.77,20.31ZM1811.11,1904.61c7.43-6.14,14.63-12.59,22.34-18.36,25.22-18.87,48.03-40.03,65.48-66.54,2.55-3.88,5.37-7.69,8.6-11,11.59-11.88,19.19-26.24,26.1-41.06.82-1.77,1.16-3.76,1.73-5.64-12.25,15.03-21.08,32.36-37.11,43.84,5.7-10.03,11.66-19.88,18.21-29.31,4.55-6.54,9.06-13.57,15.13-18.48,8.11-6.56,12.79-15.14,17.68-23.68,5.85-10.2,10.94-20.83,16.36-31.28-1.9.03-2.85.55-3.3,1.35-17.51,31.06-45.36,53.88-65.8,82.6-.76,1.07-1.69,2.11-2.76,2.86-17.49,12.23-29.25,29.9-43.24,45.45-2.05,2.27-3.55,5.04-5.31,7.57.6.61,1.2,1.21,1.81,1.82,3.92-2.69,8.34-4.87,11.65-8.18,9.18-9.16,17.9-18.77,26.77-28.23,2.1-2.24,4.12-4.55,6.18-6.83.51,2.02.06,3.19-.52,4.31-6.93,13.51-16.81,24.88-27.67,35.15-20.12,19.04-36.88,40.77-52.34,63.64ZM1327.26,1086.08c-.78.46-1.55.91-2.33,1.37,1.88,3.64,3.03,8.02,5.8,10.76,5.03,4.97,7.05,11.08,9.2,17.4,6.74,19.84,12.3,40.23,20.81,59.3,15.25,34.18,23.72,69.85,28.14,106.73,1.09,9.05,2.27,18.1,3.41,27.14,1.8-1.46,2.41-2.96,2.46-4.47.47-15.32,1.44-30.66,1.15-45.97-.74-39.15-10.54-76.43-25.45-112.37-5.72-13.79-12.64-27.11-19.56-40.37-3.92-7.51-9.25-14.16-17.28-19.79.62,4.06,1.08,7.04,1.75,11.36-3.29-4.5-5.69-7.8-8.09-11.09ZM2147.22,1161.05c-.3-.03-.61-.06-.91-.1-3.86,5.81-7.51,11.76-11.6,17.4-23.92,32.94-49.44,64.53-79.82,91.85-19.05,17.13-37.77,34.74-57.79,50.68-21.34,16.99-44.06,32.27-66.15,48.33-1.51,1.09-2.81,2.47-5.65,4.99,3.04-.58,4.13-.52,4.91-.97,29-17,59.11-32.38,86.7-51.44,53.36-36.85,92.85-86.42,123.04-143.52,2.9-5.49,4.87-11.46,7.27-17.21ZM1219.84,2672.97c.24.45.48.9.73,1.34,2.6-1.07,5.34-1.9,7.79-3.24,21.03-11.5,42.11-22.93,63-34.69,46.82-26.37,90.5-57.52,134.3-88.49,38.15-26.97,74.57-56.07,108.65-88.05,2.63-2.46,5.06-5.13,7.58-7.71-5.25,1.88-9.3,4.79-13.18,7.93-68.26,55.16-141.17,103.77-214.5,151.76-30.09,19.69-60.6,38.76-90.89,58.15-1.28.82-2.32,1.99-3.48,3ZM1979.7,748.78c.32.34.64.67.96,1.01,4.56-3.12,8.79-7,13.75-9.22,14.26-6.37,28.56-12.86,43.33-17.87,26.14-8.87,52.62-16.72,78.97-24.93,18.04-5.63,36.11-11.15,54.17-16.73-6.13-1.84-12.29-2.91-18.48-3.09-34.56-.98-67.19,7.34-99,20.28-23.23,9.45-44.8,21.9-66.4,34.38-3.32,1.92-6.22,4.55-9.32,6.85.24.4.48.8.72,1.21,1.98-.29,3.96-.58,7.21-1.05-2.44,3.79-4.18,6.48-5.92,9.17ZM1799.85,1215.01c16.01-25.23,31.35-50.92,48.18-75.58,26.45-38.74,53.9-76.79,80.94-115.13,2.79-3.96,5.65-7.87,8.48-11.8-.61-.48-1.21-.96-1.82-1.44-35.58,31.05-65.16,67.64-91.73,106.38-20.3,29.6-34.04,62.92-44.06,97.57ZM2474.03,2156.27c-5.91,6.66-11.37,13.81-17.84,19.89-13.06,12.28-25.9,25-40.23,35.67-25.07,18.67-51.5,35.52-76.8,53.89-28.6,20.76-58.17,39.84-89.63,55.97-1.67.86-3.16,2.07-4.73,3.12,7.02-1.47,13.28-4.38,19.72-6.82,21.2-8.01,41.78-17.29,61.13-29.15,20.42-12.52,40.96-24.83,61.2-37.63,37.42-23.66,63.2-58.4,87.18-94.94ZM1831.65,1980.24c-37.98,32.13-74.29,64.46-112.35,94.59-37.79,29.91-77.34,57.6-116.22,86.35,54.88-14.59,189.4-120.83,228.57-180.93ZM2492.87,2161.92c-9.12,8.48-17.25,15.4-24.63,23.03-17.33,17.94-33.31,37.35-53.91,51.77-50.16,35.11-100.83,69.43-156.63,95.32-3.89,1.81-7.55,4.13-11.32,6.21,1.99,1.09,3.2.76,4.37.32,32.73-12.24,64.32-26.95,95.75-42.2,34.01-16.5,64.22-37.92,89.72-65.55,17.12-18.55,32.62-38.58,48.77-58.01,2.47-2.98,4.56-6.28,7.88-10.89ZM1477.19,601.26c2.15.83,4.25,1.9,6.47,2.45,40.32,10.13,77.85,26.77,113.73,47.6,23.86,13.85,45.73,29.83,62.38,52.13,9.71,13.01,19.08,26.26,29.95,41.25-1.01-3.17-1.21-4.37-1.74-5.38-7.6-14.42-14.55-29.24-23.02-43.13-18.32-30.04-43.02-53.1-76.32-66.06-5.58-2.17-11.11-4.48-16.58-6.9-30.12-13.31-61.68-20.56-94.86-21.96ZM2431.23,1950.21c-11.29.53-22.6.86-33.88,1.61-47.79,3.16-94.18,12.97-138.69,30.73-45.2,18.04-88.3,40.34-129.77,65.78-2.13,1.31-4.13,2.82-6.19,4.23,2.23.44,3.95-.29,5.66-1.05,27.27-12.27,54.42-24.81,81.83-36.75,20.1-8.75,40.25-17.59,60.91-24.85,52.06-18.3,105.11-32.94,160.14-39.7ZM1945.56,898.22c72.31-31.71,144.66-62.29,206.72-111.68-7.72,2.89-15.38,5.93-22.74,9.58-12.73,6.32-25.15,13.27-37.92,19.5-23.57,11.48-47.33,22.57-70.96,33.93-22.57,10.86-43.33,24.65-63.28,39.7-3.95,2.98-7.88,5.98-11.82,8.96ZM2432.3,2055.55l-1.58-2.43c-4.26,2.33-8.52,4.67-12.78,7-3.17,1.73-6.16,4.1-9.54,5.05-13.44,3.76-26.88,7.68-40.55,10.43-59.31,11.93-114.01,35.58-166.67,64.58-1.29.71-2.43,1.67-3.64,2.51,3.52-.07,6.55-1.16,9.57-2.26,24.66-8.95,49.08-18.65,74.03-26.68,34.78-11.19,69.97-21.11,104.97-31.62,17.54-5.26,31-17.37,46.19-26.58ZM2511.91,533.15c.65-.11,1.3-.23,1.96-.34-.76-7.57-1.82-15.13-2.23-22.72-1.7-30.89-10.68-59.33-27.63-85.31-10.72-16.43-20.97-33.16-31.42-49.76-3.74-5.94-7.47-11.89-11.2-17.84-.68,2.57.09,4.29.89,5.99,7.04,15.05,14.49,29.93,21.04,45.19,10.27,23.97,15.2,49.45,20.45,74.85,2.53,12.23,6.42,24.19,9.7,36.27.54-.13,1.08-.25,1.62-.38-1.41-15.25-2.82-30.51-4.22-45.76.51-.12,1.01-.25,1.52-.37,6.52,20.06,13.03,40.12,19.55,60.19ZM1960.35,2586.2l.94,1.85c46.38-22.95,92.83-45.76,139.13-68.88,44.36-22.15,122.82-70.52,131.82-81.21-91.58,48.69-183.53,95.19-271.9,148.24ZM2084.89,1077.29c-14.36,17.53-28.71,35.05-43.07,52.58,2.65-17.04,15.71-28.64,20.15-44.53-9.49,12.49-18.45,25.28-26.88,38.41-11.13,17.34-21.81,34.97-32.77,52.43-1.41,2.24-3.17,4.29-4.99,6.23-7.96,8.51-15.93,17.01-24.02,25.39-5.89,6.11-11.97,12.05-17.96,18.07,57.61-36.89,102.21-85.11,129.54-148.58ZM1181.92,1178.73c-34.08-33.6-74.08-47.97-121.94-37.83-34.47,7.31-66.67,20.64-98.66,34.77-4.71,2.08-9.24,4.56-13.85,6.86,2.58.52,4.76.04,6.81-.76,34.23-13.35,69.42-23.13,105.72-28.9,17.84-2.83,35.79-5.03,53.61-.79,23.92,5.69,47.8,11.79,68.31,26.65ZM1678.01,747.2c.39-.3.79-.59,1.18-.89-3.9-7.18-8.03-14.24-11.64-21.56-9.5-19.26-23.21-35.14-40.86-46.87-27.1-18.01-57.28-29.46-89.09-35.83-17.18-3.44-34.83-4.51-52.26-6.66,1.19,2.13,2.66,2.46,4.12,2.85,18.58,5.03,37.35,9.48,55.72,15.21,51.05,15.91,95.64,41.51,126.63,86.83,1.73,2.54,4.13,4.62,6.22,6.92ZM1963.94,774.11c.29.44.59.88.88,1.32,11.93-4.73,24.07-9.01,35.75-14.3,17.86-8.09,35.33-17.01,53.1-25.29,8.42-3.92,16.92-7.95,25.79-10.54,19.13-5.57,38.55-10.17,57.81-15.3,12.76-3.4,25.45-7.03,38.18-10.56-1.42-1.2-2.69-1.51-3.87-1.3-22.91,4.02-45.9,7.66-68.68,12.33-17.21,3.53-34.34,7.78-51.17,12.83-25.45,7.64-47.61,21.91-69.26,36.88-6.35,4.39-12.37,9.28-18.54,13.93ZM2633.77,464.74c3.95,16.31,31.97,85.41,36.22,90.26-.37-17.26-5.57-52.61-11.79-71.57-13.44-40.98-32.88-79.16-55.67-115.68-1.29-2.07-3.19-3.75-4.81-5.61,5.72,16.12,12.9,31.35,19.37,46.87,6.52,15.65,12.03,31.71,18.53,47.36,6.31,15.22,15.13,29.49,17.09,46.29-5.63-12.15-10.01-24.86-18.93-37.92ZM847.29,1422.59c-7.12-4.16-14.92-1.65-22.66.06-29.74,6.57-57.29,18.88-84.74,31.72-17.14,8.02-32.6,17.84-45.26,31.9-3.54,3.93-6.87,8.06-10.29,12.1,26.42-14.97,51.82-30.67,79.65-41.92,27.95-11.3,55.86-22.7,83.3-33.87ZM1037.88,1406.23c-16.99-16.59-32.8-32.19-52.09-43.71-28.69-17.14-60.64-17.93-92.64-18.22-2.82-.03-5.79,1.44-8.44,2.73-1.69.82-2.91,2.61-5.6,5.14,23.28-.78,44.1,2.82,64.83,7.14l-9.64.68c17.12,7.28,35.07,11.83,51.87,19.05,17.26,7.41,33.4,17.43,51.71,27.2ZM2488.48,735.43l-.58-1.57c-3.08.87-6.22,1.57-9.23,2.63-16.64,5.81-33.2,11.84-49.88,17.54-23.59,8.07-47.44,15.43-70.82,24.06-11.46,4.23-23.42,9.04-32.76,16.56-8.44,6.79-17.52,11.73-26.68,16.94-4.96,2.83-9.95,5.61-14.92,8.42,2.31,1.34,3.97,1.31,5.36.69,8.81-3.91,17.58-7.93,26.34-11.96,10.55-4.86,20.72-10.91,31.69-14.47,39.61-12.86,78.12-28.3,115.56-46.5,8.61-4.18,17.28-8.23,25.93-12.33ZM2161.48,104.27c-29.14-9.8-64.25-12.66-90.89-9.79-12.03,1.3-23.81,5.75-35.41,9.64-3.65,1.22-6.41,5.22-9.41,8.12-.44.42.08,1.83.16,2.78,1.74.17,3.31.33,5.19.52-.56,2.43-1.08,4.67-1.76,7.62,32.5-12.57,64.98-18.37,98.63-17.63,8.97.2,17.95-.22,26.93-.46,2.19-.06,4.38-.53,6.56-.81ZM1979.41,1236.23c40.38-17.83,121.12-120.46,123.02-154.86-35.43,55.26-77.01,105.7-123.02,154.86ZM1898.89,1123.23c10.56-12.75,21.64-25.96,32.53-39.32,11.15-13.68,22.42-27.27,33.06-41.34,10.18-13.46,19.63-27.48,29.39-41.26-22.73,17.54-56.58,50.1-74.06,75.5-9.96,14.47-20.1,28.79-20.92,46.42ZM2134.99,86.72c-21.7-10.1-44.33-9.66-66.88-7.94-11.86.91-23.84,2.82-35.3,5.98-15.25,4.2-21.03,16.14-17.18,33.58,5.12-11.62,14.97-16.22,25.05-20.47,13.39-5.65,27.55-7.28,41.92-7.99,17.48-.87,34.93-2.09,52.4-3.16ZM2406.01,626.1c-10.13,1.67-20.47,2.53-30.34,5.16-26.63,7.09-53.22,14.42-79.49,22.71-12.91,4.07-25.13,10.39-37.56,15.92-2.73,1.21-5.04,3.38-9.02,6.13,15.01.84,128.8-35.08,156.41-49.92ZM2388.01,2098.95c-31.38,1.77-143.72,48.98-164.18,68.97,4.08-1.45,7.53-2.55,10.9-3.89,23.47-9.36,46.86-18.94,70.41-28.11,19.21-7.48,38.65-14.35,57.88-21.79,8.92-3.46,17.23-8.17,25-15.18ZM2025.17,1012.89c-19.88,13.86-99.99,110.88-103.31,125,42.28-35.9,76.75-77.07,103.31-125ZM1983.83,895.99c39.17-8.62,142.32-62.5,155.31-76.98-47.95,14.33-89.19,40.93-132.46,63.23-7.89,4.06-15.25,9.14-22.85,13.75ZM2148.21,126.95l-.04-.63c-2.2-.72-4.34-1.76-6.59-2.09-14.15-2.11-28.28-4.58-42.51-5.93-14.61-1.38-29.42-1.69-43.42,3.78-5.12,2-10.85,4.63-14.1,8.73-7.04,8.87-12.66,18.87-18.87,28.41,10.15-5.5,16.82-16.31,30.39-16.78-11.82,10.76-27.35,16.09-34.63,30.89,9.88-3.91,19.85-7.57,27.63-14.86,12.03-11.26,25.99-17.02,42.48-16.86,2.37.02,4.74-.75,7.11-1.16-.02-.71-.04-1.42-.06-2.13-9.09-1.31-18.23-2.32-27.24-4.02-9.71-1.83-18.22,2.72-28,5.73.98-2.07,1.18-2.72,1.56-3.24.38-.53.87-1.05,1.43-1.37,14.31-8.16,28.97-14.39,46.2-12.69,19.5,1.93,39.1,2.85,58.66,4.21ZM1500.71,571.23c-.09.74-.17,1.47-.26,2.21,56.01,18.22,108.56,42.79,153.17,82.7-2.2-5.69-4.38-11.43-8.22-15.67-10.75-11.87-23.02-22.11-36.84-30.31-23.27-13.8-48.23-23.83-73.96-31.82-10.97-3.41-22.57-4.81-33.89-7.12ZM1893.65,1461.69c1.18-.29,2.44-.4,3.53-.89,35.19-15.85,70.21-31.97,102.23-53.91,24.26-16.62,47.24-34.64,66.66-56.87,1.45-1.66,2.48-3.7,3.7-5.56-54.74,45.64-115.28,81.48-176.13,117.23ZM1213.28,998.27c-8.06-7.25-15.82-11.74-25.41-11.98-18.9-.47-37.88-.44-56.72.83-9.42.64-18.83,3.88-27.89,6.98-12.08,4.15-24.26,14.23-30.71,24.23,1.84-.88,3.07-1.24,4.04-1.95,14.37-10.57,30.64-16.05,48.27-16.66,25.55-.89,51.13-1.01,76.7-1.44,3.26-.05,6.52,0,11.72,0ZM1556.56,1296.21c-5.69,34.73-10.37,69.66-17.34,104.13-6.96,34.41-16.22,68.35-24.76,103.72,30.9-66.55,42.45-135.8,42.1-207.85ZM1542.61,485.08c-4.69-10.2-9.16-20.11-18.91-26.18-23.07-14.37-48.28-20.21-75.25-18.59-10.85.65-13.89,1.79-21.01,6.12,21.64-.06,41.45,4,60.52,11.21,19.08,7.21,38.62,13.63,54.65,27.45ZM349.58,1931.79c-.6-.19-1.2-.38-1.8-.56-3.3,8.61-7.33,17.03-9.75,25.88-7.74,28.29-11.64,57.29-14.11,86.46-.98,11.64-.33,23.27,3.65,34.47,3.26,9.18,9.09,15.75,19.32,19.38-.55-1.76-.6-2.73-1.09-3.39-8.21-11.16-11.51-24.02-11.79-37.49-.8-38.37,1.92-76.41,12.9-113.48,1.09-3.69,1.79-7.5,2.67-11.26ZM2158.87,1072.83c-1.4,2.75-2.4,4.45-3.15,6.25-9.47,22.54-22.46,43.06-36.97,62.57-18.44,24.8-34.45,51.46-56.04,73.88-1.37,1.43-1.97,3.6-3.83,7.16,44.75-34.1,89.77-100.6,99.99-149.86ZM1771.68,548.96c-15.59-10.92-123.3-41.07-165.27-46.26,22.97,13.78,128.98,43.46,165.27,46.26ZM2504.81,762.45c-64.17,35.55-131.82,63.64-198.9,92.94,71.87-19.03,137.6-51.23,198.9-92.94ZM1973.08,1187.08c6.64-6.29,13.55-12.32,19.84-18.95,6.81-7.19,13.74-14.46,19.36-22.56,8.31-11.98,16.06-24.43,23.06-37.23,10.17-18.62,19.47-37.71,29.07-56.64.68-1.33.81-2.94,1.19-4.43-28.54,48.25-61.79,93.11-92.52,139.81ZM1660.88,1664.17c37.42-7.38,130.19-58.21,148.63-80.55-49.54,26.85-99.09,53.7-148.63,80.55ZM2352.86,2351.03c30.14-12.47,57.4-29.35,80.54-52.16,22.94-22.61,43.79-47.08,61.38-74.19-44.32,45.53-85.39,94.53-141.92,126.35ZM2261.72,2245.66c-.51-.52-1.03-1.05-1.54-1.57-9.01,8.52-18.49,16.62-26.96,25.65-33.89,36.11-67.47,72.51-101.13,108.83-1.6,1.73-2.84,3.78-4.25,5.68,49.18-42.08,92.57-89.36,133.88-138.59ZM2139.63,840.75c-49.6,26.01-98.03,54.31-149.81,76.03,45.54-8.29,116.99-43.27,149.81-76.03ZM1459.69,1567.83c.51.09,1.03.19,1.54.28,2.56-7.17,4.96-14.41,7.72-21.5,18.18-46.63,33.94-93.92,39.97-143.94,1.79-14.83,3.48-29.61,2.33-42.5-6.81,33.27-12.88,68.69-21.51,103.48-8.69,35.05-19.93,69.48-30.05,104.18ZM2338.66,258.56c-.47.35-.93.7-1.4,1.05,4.31,6.97,8.46,14.05,12.95,20.9,11.87,18.09,23.1,36.57,37.54,52.92,6.77,7.66,12.02,16.75,17.42,25.52,10.59,17.23,20.8,34.7,31.17,52.07.16-2.76-.56-5.18-1.64-7.43-5.45-11.42-10.56-23.02-16.59-34.13-7.94-14.61-15.45-29.69-25.28-42.99-17.2-23.27-36.03-45.35-54.18-67.92ZM2397.93,672.49c6.43-1.28,13.09-1.87,19.24-3.97,27.03-9.27,54.04-18.61,80.79-28.65,15.65-5.87,29.89-14.56,42.22-26.04,2.72-2.54,5.14-5.41,7.69-8.13-.48-.58-.95-1.16-1.43-1.73-45.7,31.13-98.78,45.76-148.51,68.53ZM762.8,1662.27c-52.63,21.91-103.12,42.94-153.6,63.96,54.01-12.81,106.44-29.35,153.6-63.96ZM2453.62,771.29c-33.46,5.68-139.58,47.78-152.27,59.41,53.07-12.14,101.43-38.8,152.27-59.41ZM2509.38,1976.15c-.53-.43-1.06-.86-1.59-1.28-4.5,6.56-8.8,13.27-13.52,19.66-27.84,37.72-55.81,75.34-83.64,113.06-5.13,6.95-9.91,14.17-14.69,21.37-1.16,1.74-1.69,3.9-2.5,5.87.63.37,1.27.74,1.9,1.11,39.82-51.96,82.02-102.22,114.05-159.79ZM2318.88,2061.76c.15.68.31,1.36.46,2.03,12.44-2,24.87-4.01,37.31-5.99,26.02-4.14,51.66-9.81,75.98-20.22,6.1-2.61,11.74-6.29,17.59-9.48l-.92-1.91c-43.29,12.53-87.85,20.42-130.43,35.56ZM621.41,1759.64c1.51-.29,3.09-.4,4.53-.9,21.6-7.55,43.53-14.31,64.68-22.97,25.53-10.46,50.05-23.15,72.1-40.05,2.59-1.98,4.96-4.25,7.43-6.39-.41-.52-.81-1.05-1.22-1.57-47.6,27.14-96.51,51.53-147.52,71.89ZM1329.32,2667.41c-.52-.61-1.04-1.23-1.56-1.84-52.31,29-104.62,58.01-156.93,87.01l1.04,1.88c54.94-24.54,107.46-53.48,157.45-87.04ZM1552.28,694.79c-7.72,21.93-26.72,99.78-20.86,116.99.6-1.37,1.35-2.53,1.64-3.79,6.83-29.84,13.7-59.68,20.33-89.57,1.64-7.39,2.67-14.86,9.39-20.06-1.56-1.13-2.26-1.97-3.11-2.19-2.24-.57-4.55-.88-7.38-1.39ZM2043.08,1212.24c.69.45,1.38.91,2.08,1.36,34.12-35.76,58.16-77.7,77.26-124.18-26.91,41.66-53.12,82.24-79.33,122.82ZM420.5,2021.9c-1.57-6.37-3.92-12.66-4.56-19.11-1.89-19.06-.61-37.89,6.84-55.87,4.19-10.13,8.41-20.26,12.59-30.39.71-1.71,1.29-3.47,1.94-5.2-12.62,15.76-23.69,32.39-28.78,51.88-5.54,21.26-2.79,41.43,11.98,58.71ZM2395.16,2191.92c21.28-8.79,101.41-91.35,106.5-109.52-35.23,36.23-71.24,73.26-106.5,109.52ZM2184.41,2285.54c-37.68,30.61-67.43,69.04-101.59,103.18,38.41-29.88,70.25-66.25,101.59-103.18ZM1550.72,503.18c-7.38-9.69-14.79-14.94-25.17-16.11-8.55-.97-16.92-3.32-25.43-4.71-16.37-2.67-32.78-4.79-51.32,1.21,36.02.18,67.67,11.51,101.93,19.61ZM1062.83,1470.55c-33.19,15.58-66.37,31.16-100.73,47.28,39.24-5.58,71.94-22.22,100.73-47.28ZM1442.23,350.83c42.88-6.73,85.28-17.81,129.3-12.03-44.78-14.47-87.16-2.18-129.3,12.03ZM1471.94,2405.05c-18.22,4.94-124.44,62.67-131.73,71.66,45.78-22.44,89.5-45.59,131.73-71.66ZM1986.85,1920.86c-27.13,33.01-55.06,65.6-78.39,101.69,30.43-30.52,56.43-64.46,78.39-101.69ZM1677.05,1621c36.15-13.09,70.01-30.1,99.74-54.64-34.27,16.41-67.62,34.53-99.74,54.64ZM1399.28,220.51c-36.51,9.14-67.79,26.48-88.81,59.26,26.87-23.79,56.03-44.12,88.81-59.26ZM1092.63,1016.04c16.85-2.06,34.21-4.39,51.61-6.24,17.26-1.83,34.56-3.17,51.85-4.73-15.66-3.69-50.1-3.18-68.39-.23-6.23,1.01-12.51,1.88-18.65,3.31-6.32,1.48-12.45,3.68-16.43,7.89ZM1459.57,494.85c33.98,6.88,68.09,13.58,102.2,25.31-5.82-7-8.93-9.4-18.83-12.16-14.73-4.11-29.56-7.93-44.47-11.28-12.69-2.85-25.6-4.27-38.89-1.86ZM1641.5,624.97c-5.65-22.12-45.78-54.96-78.16-64.07,30.59,17.23,54.56,39.39,78.16,64.07ZM2056.84,798.74c24.09-8.04,47.29-17.72,65.89-35.89-23.31,9.48-47.28,17.75-65.89,35.89ZM882.07,1375.36c31.66,2.16,62.75,7.6,92.82,18.39-17.47-15.66-70.18-26.16-92.82-18.39ZM2462.49,2007.01c-34.28-.98-66.83,5.97-98.23,18.89,32.74-6.3,65.49-12.59,98.23-18.89ZM740.36,1657.1c-29.78,11.56-58.94,24.41-85.59,42.36,29.41-12.32,58.82-24.65,85.59-42.36ZM383.79,1946.7c-9.71,14.74,1.62,62.19,16.17,80.31-7.69-26.89-17.78-51.83-16.17-80.31ZM863.67,1405.36c29.73-1.29,58.91,3.14,88.14,7.06-28.8-9.63-58.14-12.84-88.14-7.06ZM1712,2742.22c.52.59,1.04,1.19,1.56,1.78,26.09-13.44,51.95-27.23,73.78-47.59-25.11,15.27-50.23,30.54-75.34,45.8ZM463.82,1712.14c-17.94,3.06-85.72,33.53-91.77,40.65,30.59-13.55,61.18-27.1,91.77-40.65ZM1471.35,465.02c12.92,8.88,47.18,19.24,58.15,17.28-19.18-8.29-36.87-15.59-58.15-17.28ZM2045.23,1863.45c7.9-4.85,15.86-9.61,23.68-14.58,7.52-4.78,16.47-8.02,21.25-19.28-18.79,8.65-33.54,19.16-44.93,33.86ZM1613.96,1211.49c-8.94,24.69-17.47,49.47-16.82,76.19,5.61-25.4,11.21-50.79,16.82-76.19ZM665.87,1628.37c-24.3,4.71-47.52,13.16-70.91,21,24.39-4.37,47.78-12.24,70.91-21ZM1589.61,1202.34c.66.17,1.33.34,1.99.5,5.38-21.3,10.77-42.6,16.15-63.9-9.03,20.37-14.62,41.62-18.14,63.39ZM2580.11,574.5c-5.43,17.84-10.85,35.68-16.28,53.52,10.58-16.3,15.38-34.33,16.28-53.52ZM1750.31,2294.17c20.21-3.44,39.51-9.14,56.82-20.35-18.94,6.79-37.88,13.57-56.82,20.35ZM1529.79,307.63c15.63,3.36,31.27,6.71,46.9,10.07-14.52-8-30.33-10.29-46.9-10.07ZM1663.69,1346.83c-.62-.17-1.24-.34-1.86-.52-5.41,15.85-10.82,31.71-16.24,47.56.62.2,1.24.41,1.86.61,6.75-15.44,12.34-31.26,16.23-47.66ZM1938.81,161.62c-3.11-9.09-5.87-17.11-8.99-26.22-4.18,13.81-2.92,17.4,8.99,26.22ZM2032.37,180.02c.2.71.4,1.41.61,2.12l28.45-8.27c-.2-.68-.39-1.37-.59-2.05-9.67,2.08-20.17,1.28-28.47,8.2ZM865.89,1311.96c.42.47.83.95,1.25,1.42,3.46-3.38,6.94-6.73,10.37-10.14,3.26-3.24,6.46-6.52,9.68-9.79-.56-.51-1.13-1.03-1.69-1.54-6.54,6.68-13.07,13.37-19.61,20.05ZM1111.56,1163.79c-.41.46-.82.92-1.23,1.38,5.83,2.3,11.66,4.6,17.49,6.89.24-.64.48-1.28.72-1.92-5.66-2.12-11.32-4.24-16.98-6.35ZM1162.6,1061.33c-.47.61-.95,1.23-1.42,1.84,5.62,2.79,11.24,5.58,16.87,8.37.28-.58.56-1.15.85-1.73-5.43-2.83-10.86-5.65-16.29-8.48ZM2610.03,1859.2c.5-.14,1-.29,1.49-.43-1.47-5.45-2.93-10.91-4.4-16.36-.61.17-1.22.35-1.83.52l4.73,16.27ZM1367.49,1041.56c.68.67,1.36,1.34,2.04,2.01,3.86-1.2,8.11-2.11,5.49-9.65-2.96,3-5.24,5.32-7.53,7.64ZM1464.02,746.05l1.85,1.04c.6-5.03,1.19-10.05,1.79-15.08-.37-.05-.73-.1-1.1-.15-.85,4.73-1.69,9.46-2.54,14.19ZM1297.93,1054.9h-2.22c-.65,4.68-1.29,9.36-1.94,14.03.64.08,1.28.17,1.92.25.75-4.76,1.49-9.52,2.24-14.28ZM395,1953.27c-.24,0-.48,0-.72,0v12.61c.24,0,.48,0,.72,0v-12.61ZM1559.69,344.11c-.04.33-.08.66-.12.98l11.04,2.12c.07-.52.14-1.04.2-1.57-3.71-.51-7.42-1.02-11.12-1.53ZM1492.85,682.55c-.15,0-.3,0-.45,0v9.05c.15,0,.3,0,.45,0v-9.05ZM1494.06,670.13c.16-.02.31-.05.47-.07v-8.22c-.51.06-1.03.12-1.54.18.36,2.7.72,5.41,1.07,8.11ZM2484.87,2146.31c-.43-.33-.86-.66-1.3-1-1.94,2.42-3.87,4.85-5.81,7.27.48.37.96.74,1.44,1.1,1.89-2.46,3.78-4.92,5.67-7.38ZM909.4,1360.43c.08.25.16.5.24.74h8.54c0-.25,0-.5-.01-.74h-8.77ZM2057.72,160.68c0,.09,0,.19,0,.28h4.48c0-.09,0-.19,0-.28h-4.48ZM1517.96,700.71c.45-.09.9-.17,1.35-.26-.11-1.52-.23-3.04-.34-4.57-.26.01-.52.03-.78.04-.07,1.6-.15,3.19-.22,4.79Z"/>
      <path class="cls-1" d="M910.92,1958.45c90.41-52,177.62-108.64,261.41-170.71,83.9-62.16,160.74-132.32,235.44-205.04.51.42,1.01.85,1.52,1.27-.83,1.63-1.54,3.34-2.52,4.88-35.27,55.64-79.01,103.57-129.55,145.82-83.81,70.06-175.8,127.3-272.59,177.23-28.11,14.5-56.52,28.43-84.81,42.58-2.9,1.45-5.93,2.65-8.89,3.96Z"/>
      <path class="cls-1" d="M1308.38,812.21c-1.31.92-2.5,2.09-3.94,2.72-28.72,12.76-54.43,30.87-81.65,46.29-29.64,16.79-60.31,31.24-91.82,43.97-81.56,32.94-161.77,68.78-239.65,109.75-33.89,17.83-67.93,35.36-101.91,53.01-2.58,1.34-5.23,2.54-8.61,2.66,1.29-.95,2.5-2.03,3.87-2.84,60.75-35.95,121.33-72.21,182.34-107.72,56.21-32.72,115.33-59.53,175.39-84.37,53.22-22.01,106.43-44.02,160.6-63.61,1.49-.54,2.99-1.01,4.49-1.52.3.56.59,1.11.89,1.67Z"/>
      <path class="cls-1" d="M1118.19,2857.31c-15.53,8.95-31.04,17.94-46.61,26.85-44.28,25.34-90.26,46.97-137.54,66.28-48.73,19.9-98.06,38.06-147.78,55.16-50.68,17.42-102.13,32.36-154.43,44.32-28.22,6.45-56.22,13.83-84.33,20.76-2.17.54-4.42.79-6.97-.18,13.15-4.17,26.34-8.18,39.43-12.53,64.74-21.5,130.02-41.53,194.01-65.04,70.57-25.93,140.29-54.22,209.24-84.37,35.04-15.32,71.12-28.26,106.73-42.27,7.43-2.92,14.87-5.83,22.34-8.67,1.74-.66,3.6-1.02,5.4-1.52.17.41.34.82.51,1.23Z"/>
      <path class="cls-1" d="M711.91,1822.19c1.44-1.18,2.7-2.73,4.33-3.48,65.72-30.19,129.63-63.89,191.6-101.11,45.39-27.27,90.82-54.64,134.64-84.31,48.25-32.67,95.16-67.38,141.68-102.5,22-16.61,41.72-36.24,62.47-54.5.98-.86,2.02-1.67,4.49-1.56-2.15,2.85-4.23,5.75-6.47,8.53-17.17,21.38-37.12,40.05-57.16,58.65-46.79,43.41-97.64,81.63-150.69,116.9-79.31,52.71-164.16,95.14-251.16,133.43-21.02,9.25-42.23,18.07-63.42,26.93-3.31,1.38-6.98,1.91-10.48,2.84,0,0,.17.2.17.2Z"/>
      <path class="cls-1" d="M1392.33,1686.41c-10.28,12.19-20.68,24.29-30.82,36.6-57.87,70.22-125.75,129.2-200.76,180.44-53.2,36.34-108.79,68.39-166.59,96.71-12.19,5.97-24.27,12.15-36.97,17.26,15.91-11.92,33.57-21.01,50.09-31.87,16.98-11.16,33.97-22.3,50.83-33.63,16.86-11.33,33.7-22.71,50.31-34.41,16.61-11.7,33.01-23.71,49.34-35.79,16.6-12.28,33.18-24.6,49.47-37.3,16.02-12.49,31.81-25.28,47.42-38.27,15.62-13,30.95-26.34,46.28-39.68,15.33-13.34,30.68-26.67,45.7-40.36,14.94-13.61,29.49-27.65,44.21-41.51.49.61.99,1.21,1.48,1.82Z"/>
      <path class="cls-1" d="M140.22,2363.09c167.55-51.97,332.69-110.69,495.46-176.11-158.86,76.39-322.95,138.08-495.46,176.11Z"/>
      <path class="cls-1" d="M2062.39,596.98c-6.4,1.32-12.82,2.56-19.21,3.97-19.01,4.2-36.63,12.14-54.04,20.5-27.32,13.12-54.52,26.44-79.64,43.68-28.05,19.25-51.19,43.47-72.51,69.66-1.68,2.06-3.26,4.2-4.97,6.25-.33.39-1.01.47-2.92,1.29,21.42-44.86,50.33-81.76,91.69-107.93,43.13-27.29,91.17-37.03,141.6-37.42Z"/>
      <path class="cls-1" d="M1282.85,756.81c-104.53,58.74-214.14,106.95-323.26,159.29,11-9.27,119.96-71.22,156.8-90.16,53.63-27.58,110.44-47.39,166.46-69.13Z"/>
      <path class="cls-1" d="M1066.18,3108.46c130.3-50.79,261.06-100.42,389.25-156.48-21.21,20.73-326.83,143.04-389.25,156.48Z"/>
      <path class="cls-1" d="M451.15,1502.66c70.41-32.19,139.04-68.58,211.58-96.3-66.1,41.74-138.22,70.26-211.58,96.3Z"/>
      <path class="cls-1" d="M1614.87,399.72c12.67,1.27,22.94,3.11,32.5,8.28,12.83,6.93,25.89,13.43,38.77,20.27,3.73,1.98,7.19,4.48,10.29,7.73-13.73-4.79-26.83-10.87-39.87-17.21-13.05-6.35-26.39-12.1-41.69-19.07Z"/>
      <path class="cls-1" d="M1665.18,494.19c-3.01-.89-6.03-1.78-9.04-2.67.1-.44.2-.88.31-1.31,3.03.64,6.06,1.29,9.08,1.93-.12.68-.23,1.37-.35,2.05Z"/>
      <path class="cls-1" d="M1987.1,27.23c-1.55-.14-3.11-.28-4.66-.42h4.68c0,.14-.01.28-.02.42Z"/>
      <path class="cls-1" d="M711.75,1821.99c-2.12,1.15-4.24,2.31-6.36,3.46l-.56-1.48c2.36-.6,4.72-1.19,7.08-1.78,0,0-.16-.19-.16-.19Z"/>
      <path class="cls-1" d="M2011.55,75.86c1.3-2.1,2.59-4.2,3.89-6.3.81.97,1.63,1.94,2.44,2.91-2.17,1.06-4.34,2.12-6.52,3.17,0,0,.19.22.19.22Z"/>
      <path class="cls-1" d="M1645.51,819.82c-6.71,7.19-13.42,14.38-20.13,21.58-.52-.52-1.05-1.04-1.57-1.55,6.97-6.94,12.31-15.55,21.89-19.82l-.19-.2Z"/>
      <path class="cls-1" d="M1645.71,820.02c1.46-4.41,5.21-6.01,8.64-7.98.4.55.8,1.09,1.2,1.64-3.35,2.05-6.69,4.09-10.04,6.14,0,0,.19.2.19.2Z"/>
      <path class="cls-1" d="M1326.02,980.27c6.12-16.85,7.6-34.01,9.57-51.21,2.65-23.11,7.13-46.03,17.19-67.37,1.5-3.18,3.6-6.08,5.87-9.86.44,1.82.88,2.55.7,3.05-13.05,34.32-17.16,70.29-19.83,106.54-.78,10.59-1.68,21.18-2.52,31.65-6.49.7-12.21-.81-23.7-6.26,3.98-18.89,4.23-39.05,17.98-55.13-1.15,7.75-2.6,15.73-3.47,23.78-.89,8.24-1.21,16.55-1.79,24.83Z"/>
      <path class="cls-1" d="M1331.19,890.7c-2.61,14.3-5.2,28.6-7.86,42.89-.24,1.29-.6,2.69-1.34,3.73-9.03,12.78-9.89,27.91-12.4,42.57-.41,2.42.13,5.61-5.33,5.65-.05-2.72-.61-5.5-.08-8.06,2.61-12.61,4.37-25.3,10.53-37.16,4.03-7.75,4.72-17.21,7.11-25.85,2.25-8.15,4.77-16.23,7.17-24.34.73.19,1.46.38,2.19.57Z"/>
      <path class="cls-1" d="M732.61,1442.67c11.47-11.98,22.86-24.04,34.43-35.92,21.79-22.38,39.01-47.94,53.22-75.64,15.47-30.15,34.76-57.5,59.68-80.65,4.6-4.27,9.65-8.07,15.77-10.94-1.58,1.75-3.03,3.66-4.77,5.24-22.87,20.76-41,45.41-57.59,71.19-4.82,7.48-7.87,16.09-11.83,24.14-5.57,11.34-10.89,22.82-17,33.86-2.75,4.96-5.25,10.47-12.04,12.44-2.95.85-4.83,5.24-7.32,7.9-12.29,13.09-24.44,26.32-37.04,39.1-4.1,4.15-9.43,7.09-14.2,10.58-.43-.43-.86-.86-1.3-1.28Z"/>
      <path class="cls-1" d="M1391.75,1907.96c2.29-2.3,4.32-4.96,6.91-6.84,25.57-18.58,51.3-36.95,76.86-55.54,51.18-37.21,104.88-70.57,158.6-103.9,3.24-2.01,6.63-3.8,10.92-4.2-2.72,2.11-5.32,4.41-8.18,6.31-44.02,29.32-88.24,58.37-132.09,87.96-33.92,22.89-67.37,46.49-101.12,69.64-3.73,2.56-8.06,4.26-12.11,6.36,0,0,.21.22.21.22Z"/>
      <path class="cls-1" d="M1391.54,1907.74l-5.15,5.53c-.44-.58-.88-1.15-1.32-1.73,2.23-1.19,4.45-2.39,6.68-3.58,0,0-.21-.22-.21-.22Z"/>
      <path class="cls-1" d="M2228.34,597.56c-1.6,1.24-3.19,2.49-4.79,3.73-.26-.33-.53-.65-.79-.98,1.45-1.32,2.91-2.63,4.36-3.95.41.4.81.8,1.22,1.2Z"/>
      <path class="cls-1" d="M1973.83,716.87c6.44-11.49,17.23-17.23,28.91-21.73-9.64,7.24-19.28,14.49-28.91,21.73Z"/>
      <path class="cls-1" d="M2015.02,686.41l6.01-3.58c.21.35.43.7.64,1.05-2.02,1.17-4.04,2.34-6.06,3.51l-.59-.98Z"/>
      <path class="cls-1" d="M1831.5,1041.77c2.77-6.78,6.71-12.66,13.33-16.46-2.01,7.42-5.49,13.67-13.55,16.27l.22.19Z"/>
      <path class="cls-1" d="M1831.28,1041.57c-1.17,2.43-2.34,4.86-3.52,7.29-.59-.42-1.18-.84-1.76-1.26,1.84-1.94,3.68-3.88,5.51-5.83,0,0-.23-.2-.23-.2Z"/>
      <path class="cls-1" d="M377.57,2022.54c1.19,2.23,2.38,4.46,4.22,7.9-1.93-.86-3.05-1-3.31-1.54-.91-1.9-1.52-3.94-2.25-5.92.45-.15.89-.29,1.34-.44Z"/>
    </g>
  </g>
</svg>